<svg width="71" height="72" viewBox="0 0 71 72" fill="none" xmlns="http://www.w3.org/2000/svg">
<g clip-path="url(#clip0)">
<path d="M5.86728 69.5704C5.86728 68.7156 5.86728 67.9207 5.86728 67.1259C5.86728 51.6487 5.86728 36.1865 5.85246 20.7094C5.85246 20.1545 5.98582 19.8245 6.48957 19.5396C15.972 14.0356 25.4249 8.50161 34.8925 2.96762C35.337 2.71267 35.663 2.71267 36.1075 2.96762C45.5899 8.51661 55.0724 14.0656 64.5697 19.5846C65.0142 19.8545 65.1475 20.1395 65.1475 20.6494C65.1327 29.4528 65.1327 38.2412 65.1327 47.0446C65.1327 47.3445 65.1327 47.6445 65.1327 47.9894C65.918 47.9894 66.6736 47.9894 67.5033 47.9894C67.5033 47.6894 67.5033 47.4045 67.5033 47.1195C67.5033 37.8512 67.5033 28.5679 67.5182 19.2996C67.5182 18.7597 67.3848 18.4598 66.8959 18.1898C56.6281 12.1909 46.3752 6.20703 36.1371 0.208125C35.6778 -0.0618257 35.337 -0.076823 34.8777 0.208125C24.6248 6.20703 14.3719 12.2059 4.11895 18.1748C3.64483 18.4448 3.49667 18.7447 3.49667 19.2846C3.51148 35.5567 3.51148 51.8287 3.51148 68.1007C3.51148 68.5806 3.51148 69.0455 3.51148 69.6004C2.34099 69.6004 1.20013 69.6004 0 69.6004C0 70.4403 0 71.1901 0 72C23.6469 71.985 47.2938 71.985 71 71.985C71 71.2351 71 70.4853 71 69.6454C66.7033 69.6454 62.4065 69.6454 58.0357 69.6454C58.4209 68.8056 58.7765 68.0557 59.1617 67.2159C59.8729 67.2159 60.6582 67.2159 61.4434 67.2159C63.4437 67.2009 65.1031 65.5062 65.1179 63.4816C65.1327 60.977 65.1624 58.4875 65.1031 55.9829C65.0883 55.3081 64.9253 54.5732 64.6141 53.9883C61.8583 48.6793 59.058 43.4002 56.2725 38.1212C55.5317 36.7115 54.3464 36.0216 52.7759 36.0216C50.9979 36.0216 49.22 36.0216 47.3679 36.0216C47.3679 35.2267 47.3679 34.4619 47.3679 33.667C46.553 33.667 45.827 33.667 45.0121 33.667C45.0121 40.4158 45.0121 47.1645 45.0121 53.9733C44.1824 53.9733 43.4416 53.9733 42.6119 53.9733C42.6119 53.6584 42.6119 53.3734 42.6119 53.0735C42.6119 45.1249 42.6119 37.1764 42.6119 29.2278C42.6119 26.7683 41.071 25.2236 38.6263 25.2236C30.9662 25.2236 23.321 25.2236 15.6609 25.2236C13.3495 25.2236 11.779 26.8133 11.779 29.1828C11.779 37.1314 11.779 45.0799 11.779 53.0285C11.779 53.3284 11.779 53.6284 11.779 53.9133C11.3049 54.0633 10.8308 54.1383 10.4307 54.3482C9.03799 55.0831 8.20827 56.2079 8.22308 57.8726C8.2379 59.7472 8.20827 61.6219 8.22308 63.4966C8.2379 65.5212 9.91215 67.2009 11.9124 67.2159C13.4681 67.2309 15.0238 67.2159 16.5499 67.2159C16.9203 68.0107 17.2759 68.7606 17.6463 69.5704C13.7644 69.5704 9.85288 69.5704 5.86728 69.5704ZM16.624 64.8313C15.0386 64.8313 13.4829 64.8313 11.9272 64.8313C10.9197 64.8313 10.6233 64.5014 10.6085 63.4666C10.6085 61.6369 10.6085 59.8222 10.6085 57.9926C10.6085 56.6878 10.8604 56.4328 12.1791 56.4328C28.7734 56.4328 45.3529 56.4328 61.9472 56.4328C62.2139 56.4328 62.4658 56.4328 62.7621 56.4328C62.7621 58.9374 62.7621 61.3369 62.7621 63.7215C62.7621 64.4114 62.3917 64.8013 61.7101 64.8163C60.8508 64.8313 59.9914 64.8163 59.1321 64.8163C58.1394 61.9968 56.3614 60.0772 53.3093 60.0622C50.2275 60.0472 48.4199 61.9668 47.4272 64.7863C41.0413 64.7863 34.6555 64.7863 28.2844 64.7863C27.0991 61.6969 25.0396 60.0172 22.4616 60.0172C19.8836 60.0172 17.8093 61.7119 16.624 64.8313ZM47.3827 38.4361C49.1607 38.4361 50.909 38.4661 52.6573 38.4211C53.4574 38.3911 53.9167 38.7061 54.2871 39.411C56.7022 44.0451 59.1469 48.6643 61.5768 53.2834C61.6953 53.4934 61.7842 53.7183 61.9028 53.9733C57.0134 53.9733 52.198 53.9733 47.3975 53.9733C47.3827 48.7842 47.3827 43.6402 47.3827 38.4361ZM14.2237 54.0033C14.2237 51.5737 14.2237 49.2192 14.2237 46.8946C18.1797 46.8946 22.0912 46.8946 25.9731 46.8946C25.9731 49.2942 25.9731 51.6337 25.9731 54.0033C22.0467 54.0033 18.15 54.0033 14.2237 54.0033ZM28.4178 37.2813C32.3886 37.2813 36.2853 37.2813 40.182 37.2813C40.182 39.6959 40.182 42.0505 40.182 44.39C36.2408 44.39 32.3441 44.39 28.4178 44.39C28.4178 42.0205 28.4178 39.6809 28.4178 37.2813ZM25.9731 37.2514C25.9731 39.6659 25.9731 42.0205 25.9731 44.39C22.0171 44.39 18.1204 44.39 14.2237 44.39C14.2237 41.9755 14.2237 39.6209 14.2237 37.2514C18.15 37.2514 22.0171 37.2514 25.9731 37.2514ZM28.4326 53.9883C28.4326 51.5737 28.4326 49.2192 28.4326 46.8796C32.3886 46.8796 36.3001 46.8796 40.1968 46.8796C40.1968 49.2792 40.1968 51.6187 40.1968 53.9883C36.2705 53.9883 32.3886 53.9883 28.4326 53.9883ZM28.4178 27.6381C32.033 27.6381 35.5593 27.6381 39.0856 27.6381C39.9301 27.6381 40.2264 27.9681 40.2412 28.8379C40.2561 29.9177 40.2412 30.9825 40.2412 32.0623C40.2412 32.9771 40.2412 33.892 40.2412 34.7768C36.226 34.7768 32.3293 34.7768 28.4178 34.7768C28.4178 32.3772 28.4178 30.0527 28.4178 27.6381ZM14.1644 34.7918C14.1644 32.8422 14.1644 30.9675 14.1644 29.0928C14.1644 27.8781 14.4163 27.6231 15.6461 27.6231C18.8464 27.6231 22.0616 27.6231 25.2619 27.6231C25.499 27.6231 25.736 27.6381 25.9583 27.6531C25.9583 30.0827 25.9583 32.4372 25.9583 34.7918C22.0171 34.7918 18.1352 34.7918 14.1644 34.7918ZM48.4939 69.5854C41.3969 69.5854 34.3295 69.5854 27.2473 69.5854C27.6177 68.7906 27.9733 68.0407 28.3437 67.2609C34.6851 67.2609 41.071 67.2609 47.3975 67.2609C47.7679 68.0407 48.1087 68.7756 48.4939 69.5854ZM49.7237 66.0611C49.7089 63.9315 51.1313 62.4617 53.2056 62.4317C55.3539 62.4018 56.8207 63.8565 56.8207 66.0011C56.8356 68.1307 55.4132 69.6004 53.3241 69.6304C51.1905 69.6454 49.7385 68.2057 49.7237 66.0611ZM22.4172 69.6304C20.328 69.6154 18.9057 68.1607 18.9057 66.0311C18.9057 63.8715 20.3577 62.4318 22.5061 62.4467C24.5952 62.4617 26.0175 63.9165 26.0175 66.0461C26.0027 68.1907 24.5655 69.6304 22.4172 69.6304Z" fill="#222327"/>
<path d="M42.6119 21.5792C42.6119 18.2648 42.6119 14.9954 42.597 11.726C42.597 11.5311 42.4341 11.2611 42.2563 11.1561C40.1375 9.83637 38.004 8.5466 35.8556 7.27183C35.6778 7.16685 35.3222 7.16685 35.1444 7.27183C32.996 8.5466 30.8625 9.83637 28.7437 11.1561C28.5808 11.2611 28.403 11.5311 28.403 11.726C28.3881 14.9954 28.3881 18.2648 28.3881 21.5792C33.1294 21.5792 37.8262 21.5792 42.6119 21.5792ZM36.7149 10.5712C37.8114 11.2311 38.8041 11.816 39.7671 12.4609C40.0042 12.6109 40.2116 12.9858 40.2116 13.2557C40.2561 15.0254 40.2264 16.7951 40.2264 18.5798C40.2264 18.7897 40.1968 18.9997 40.182 19.1947C38.9818 19.1947 37.8558 19.1947 36.7001 19.1947C36.7149 16.3302 36.7149 13.5257 36.7149 10.5712ZM30.7588 19.1947C30.7588 17.095 30.7588 15.0554 30.7588 13.0158C30.7588 12.8808 30.818 12.7008 30.9069 12.6409C32.0033 11.951 33.0998 11.2911 34.2702 10.5862C34.2702 13.5557 34.2702 16.3602 34.2702 19.2097C33.1146 19.1947 31.9885 19.1947 30.7588 19.1947Z" fill="#222327"/>
<path d="M22.4172 51.5737C22.4172 50.7789 22.4172 50.029 22.4172 49.2642C20.8614 49.2642 19.3502 49.2642 17.7648 49.2642C17.7648 50.014 17.7648 50.7639 17.7648 51.5737C19.3057 51.5737 20.8318 51.5737 22.4172 51.5737Z" fill="#222327"/>
<path d="M31.9885 41.9905C33.5442 41.9905 35.0555 41.9905 36.6409 41.9905C36.6409 41.2406 36.6409 40.4758 36.6409 39.6659C35.1148 39.6659 33.5739 39.6659 31.9885 39.6659C31.9885 40.4308 31.9885 41.1656 31.9885 41.9905Z" fill="#222327"/>
<path d="M22.4023 39.6659C20.8318 39.6659 19.3057 39.6659 17.75 39.6659C17.75 40.4308 17.75 41.1806 17.75 41.9755C19.2761 41.9755 20.817 41.9755 22.4023 41.9755C22.4023 41.2406 22.4023 40.4758 22.4023 39.6659Z" fill="#222327"/>
<path d="M36.6409 49.2642C35.1 49.2642 33.5739 49.2642 32.0033 49.2642C32.0033 50.014 32.0033 50.7639 32.0033 51.5737C33.5294 51.5737 35.0703 51.5737 36.6409 51.5737C36.6409 50.8089 36.6409 50.059 36.6409 49.2642Z" fill="#222327"/>
<path d="M36.6557 32.3922C36.6557 31.6124 36.6557 30.8625 36.6557 30.0827C35.1 30.0827 33.5739 30.0827 31.9885 30.0827C31.9885 30.8475 31.9885 31.5974 31.9885 32.3922C33.5294 32.3922 35.0555 32.3922 36.6557 32.3922Z" fill="#222327"/>
<path d="M17.75 32.4072C19.3205 32.4072 20.8466 32.4072 22.4023 32.4072C22.4023 31.6274 22.4023 30.8775 22.4023 30.0827C20.8614 30.0827 19.3205 30.0827 17.75 30.0827C17.75 30.8475 17.75 31.5824 17.75 32.4072Z" fill="#222327"/>
<path d="M54.4353 67.1859C54.4353 66.391 54.4353 65.6562 54.4353 64.8763C53.6649 64.8763 52.924 64.8763 52.1388 64.8763C52.1388 65.6412 52.1388 66.406 52.1388 67.1859C52.8944 67.1859 53.6204 67.1859 54.4353 67.1859Z" fill="#222327"/>
<path d="M23.6173 67.1709C23.6173 66.376 23.6173 65.6412 23.6173 64.8613C22.8616 64.8613 22.1208 64.8613 21.3356 64.8613C21.3356 65.6112 21.3356 66.361 21.3356 67.1709C22.0616 67.1709 22.8024 67.1709 23.6173 67.1709Z" fill="#222327"/>
<path d="M5.86728 69.5704C5.86728 68.7156 5.86728 67.9207 5.86728 67.1259C5.86728 51.6487 5.86728 36.1865 5.85246 20.7094C5.85246 20.1545 5.98582 19.8245 6.48957 19.5396C15.972 14.0356 25.4249 8.50161 34.8925 2.96762C35.337 2.71267 35.663 2.71267 36.1075 2.96762C45.5899 8.51661 55.0724 14.0656 64.5697 19.5846C65.0142 19.8545 65.1475 20.1395 65.1475 20.6494C65.1327 29.4528 65.1327 38.2412 65.1327 47.0446C65.1327 47.3445 65.1327 47.6445 65.1327 47.9894C65.918 47.9894 66.6736 47.9894 67.5033 47.9894C67.5033 47.6894 67.5033 47.4045 67.5033 47.1195C67.5033 37.8512 67.5033 28.5679 67.5182 19.2996C67.5182 18.7597 67.3848 18.4598 66.8959 18.1898C56.6281 12.1909 46.3752 6.20703 36.1371 0.208125C35.6778 -0.0618257 35.337 -0.076823 34.8777 0.208125C24.6248 6.20703 14.3719 12.2059 4.11895 18.1748C3.64483 18.4448 3.49667 18.7447 3.49667 19.2846C3.51148 35.5567 3.51148 51.8287 3.51148 68.1007C3.51148 68.5806 3.51148 69.0455 3.51148 69.6004C2.34099 69.6004 1.20013 69.6004 0 69.6004C0 70.4403 0 71.1901 0 72C23.6469 71.985 47.2938 71.985 71 71.985C71 71.2351 71 70.4853 71 69.6454C66.7033 69.6454 62.4065 69.6454 58.0357 69.6454C58.4209 68.8056 58.7765 68.0557 59.1617 67.2159C59.8729 67.2159 60.6582 67.2159 61.4434 67.2159C63.4437 67.2009 65.1031 65.5062 65.1179 63.4816C65.1327 60.977 65.1624 58.4875 65.1031 55.9829C65.0883 55.3081 64.9253 54.5732 64.6141 53.9883C61.8583 48.6793 59.058 43.4002 56.2725 38.1212C55.5317 36.7115 54.3464 36.0216 52.7759 36.0216C50.9979 36.0216 49.22 36.0216 47.3679 36.0216C47.3679 35.2267 47.3679 34.4619 47.3679 33.667C46.553 33.667 45.827 33.667 45.0121 33.667C45.0121 40.4158 45.0121 47.1645 45.0121 53.9733C44.1824 53.9733 43.4416 53.9733 42.6119 53.9733C42.6119 53.6584 42.6119 53.3734 42.6119 53.0735C42.6119 45.1249 42.6119 37.1764 42.6119 29.2278C42.6119 26.7683 41.071 25.2236 38.6263 25.2236C30.9662 25.2236 23.321 25.2236 15.6609 25.2236C13.3495 25.2236 11.779 26.8133 11.779 29.1828C11.779 37.1314 11.779 45.0799 11.779 53.0285C11.779 53.3284 11.779 53.6284 11.779 53.9133C11.3049 54.0633 10.8308 54.1383 10.4307 54.3482C9.03799 55.0831 8.20827 56.2079 8.22308 57.8726C8.2379 59.7472 8.20827 61.6219 8.22308 63.4966C8.2379 65.5212 9.91215 67.2009 11.9124 67.2159C13.4681 67.2309 15.0238 67.2159 16.5499 67.2159C16.9203 68.0107 17.2759 68.7606 17.6463 69.5704C13.7644 69.5704 9.85288 69.5704 5.86728 69.5704ZM16.624 64.8313C15.0386 64.8313 13.4829 64.8313 11.9272 64.8313C10.9197 64.8313 10.6233 64.5014 10.6085 63.4666C10.6085 61.6369 10.6085 59.8222 10.6085 57.9926C10.6085 56.6878 10.8604 56.4328 12.1791 56.4328C28.7734 56.4328 45.3529 56.4328 61.9472 56.4328C62.2139 56.4328 62.4658 56.4328 62.7621 56.4328C62.7621 58.9374 62.7621 61.3369 62.7621 63.7215C62.7621 64.4114 62.3917 64.8013 61.7101 64.8163C60.8508 64.8313 59.9914 64.8163 59.1321 64.8163C58.1394 61.9968 56.3614 60.0772 53.3093 60.0622C50.2275 60.0472 48.4199 61.9668 47.4272 64.7863C41.0413 64.7863 34.6555 64.7863 28.2844 64.7863C27.0991 61.6969 25.0396 60.0172 22.4616 60.0172C19.8836 60.0172 17.8093 61.7119 16.624 64.8313ZM47.3827 38.4361C49.1607 38.4361 50.909 38.4661 52.6573 38.4211C53.4574 38.3911 53.9167 38.7061 54.2871 39.411C56.7022 44.0451 59.1469 48.6643 61.5768 53.2834C61.6953 53.4934 61.7842 53.7183 61.9028 53.9733C57.0134 53.9733 52.198 53.9733 47.3975 53.9733C47.3827 48.7842 47.3827 43.6402 47.3827 38.4361ZM14.2237 54.0033C14.2237 51.5737 14.2237 49.2192 14.2237 46.8946C18.1797 46.8946 22.0912 46.8946 25.9731 46.8946C25.9731 49.2942 25.9731 51.6337 25.9731 54.0033C22.0467 54.0033 18.15 54.0033 14.2237 54.0033ZM28.4178 37.2813C32.3886 37.2813 36.2853 37.2813 40.182 37.2813C40.182 39.6959 40.182 42.0505 40.182 44.39C36.2408 44.39 32.3441 44.39 28.4178 44.39C28.4178 42.0205 28.4178 39.6809 28.4178 37.2813ZM25.9731 37.2514C25.9731 39.6659 25.9731 42.0205 25.9731 44.39C22.0171 44.39 18.1204 44.39 14.2237 44.39C14.2237 41.9755 14.2237 39.6209 14.2237 37.2514C18.15 37.2514 22.0171 37.2514 25.9731 37.2514ZM28.4326 53.9883C28.4326 51.5737 28.4326 49.2192 28.4326 46.8796C32.3886 46.8796 36.3001 46.8796 40.1968 46.8796C40.1968 49.2792 40.1968 51.6187 40.1968 53.9883C36.2705 53.9883 32.3886 53.9883 28.4326 53.9883ZM28.4178 27.6381C32.033 27.6381 35.5593 27.6381 39.0856 27.6381C39.9301 27.6381 40.2264 27.9681 40.2412 28.8379C40.2561 29.9177 40.2412 30.9825 40.2412 32.0623C40.2412 32.9771 40.2412 33.892 40.2412 34.7768C36.226 34.7768 32.3293 34.7768 28.4178 34.7768C28.4178 32.3772 28.4178 30.0527 28.4178 27.6381ZM14.1644 34.7918C14.1644 32.8422 14.1644 30.9675 14.1644 29.0928C14.1644 27.8781 14.4163 27.6231 15.6461 27.6231C18.8464 27.6231 22.0616 27.6231 25.2619 27.6231C25.499 27.6231 25.736 27.6381 25.9583 27.6531C25.9583 30.0827 25.9583 32.4372 25.9583 34.7918C22.0171 34.7918 18.1352 34.7918 14.1644 34.7918ZM48.4939 69.5854C41.3969 69.5854 34.3295 69.5854 27.2473 69.5854C27.6177 68.7906 27.9733 68.0407 28.3437 67.2609C34.6851 67.2609 41.071 67.2609 47.3975 67.2609C47.7679 68.0407 48.1087 68.7756 48.4939 69.5854ZM49.7237 66.0611C49.7089 63.9315 51.1313 62.4617 53.2056 62.4317C55.3539 62.4018 56.8207 63.8565 56.8207 66.0011C56.8356 68.1307 55.4132 69.6004 53.3241 69.6304C51.1905 69.6454 49.7385 68.2057 49.7237 66.0611ZM22.4172 69.6304C20.328 69.6154 18.9057 68.1607 18.9057 66.0311C18.9057 63.8715 20.3577 62.4318 22.5061 62.4467C24.5952 62.4617 26.0175 63.9165 26.0175 66.0461C26.0027 68.1907 24.5655 69.6304 22.4172 69.6304Z" stroke="white" stroke-width="0.8"/>
<path d="M42.6119 21.5792C42.6119 18.2648 42.6119 14.9954 42.597 11.726C42.597 11.5311 42.4341 11.2611 42.2563 11.1561C40.1375 9.83637 38.004 8.5466 35.8556 7.27183C35.6778 7.16685 35.3222 7.16685 35.1444 7.27183C32.996 8.5466 30.8625 9.83637 28.7437 11.1561C28.5808 11.2611 28.403 11.5311 28.403 11.726C28.3881 14.9954 28.3881 18.2648 28.3881 21.5792C33.1294 21.5792 37.8262 21.5792 42.6119 21.5792ZM36.7149 10.5712C37.8114 11.2311 38.8041 11.816 39.7671 12.4609C40.0042 12.6109 40.2116 12.9858 40.2116 13.2557C40.2561 15.0254 40.2264 16.7951 40.2264 18.5798C40.2264 18.7897 40.1968 18.9997 40.182 19.1947C38.9818 19.1947 37.8558 19.1947 36.7001 19.1947C36.7149 16.3302 36.7149 13.5257 36.7149 10.5712ZM30.7588 19.1947C30.7588 17.095 30.7588 15.0554 30.7588 13.0158C30.7588 12.8808 30.818 12.7008 30.9069 12.6409C32.0033 11.951 33.0998 11.2911 34.2702 10.5862C34.2702 13.5557 34.2702 16.3602 34.2702 19.2097C33.1146 19.1947 31.9885 19.1947 30.7588 19.1947Z" stroke="white" stroke-width="0.8"/>
<path d="M22.4172 51.5737C22.4172 50.7789 22.4172 50.029 22.4172 49.2642C20.8614 49.2642 19.3502 49.2642 17.7648 49.2642C17.7648 50.014 17.7648 50.7639 17.7648 51.5737C19.3057 51.5737 20.8318 51.5737 22.4172 51.5737Z" stroke="white" stroke-width="0.8"/>
<path d="M31.9885 41.9905C33.5442 41.9905 35.0555 41.9905 36.6409 41.9905C36.6409 41.2406 36.6409 40.4758 36.6409 39.6659C35.1148 39.6659 33.5739 39.6659 31.9885 39.6659C31.9885 40.4308 31.9885 41.1656 31.9885 41.9905Z" stroke="white" stroke-width="0.8"/>
<path d="M22.4023 39.6659C20.8318 39.6659 19.3057 39.6659 17.75 39.6659C17.75 40.4308 17.75 41.1806 17.75 41.9755C19.2761 41.9755 20.817 41.9755 22.4023 41.9755C22.4023 41.2406 22.4023 40.4758 22.4023 39.6659Z" stroke="white" stroke-width="0.8"/>
<path d="M36.6409 49.2642C35.1 49.2642 33.5739 49.2642 32.0033 49.2642C32.0033 50.014 32.0033 50.7639 32.0033 51.5737C33.5294 51.5737 35.0703 51.5737 36.6409 51.5737C36.6409 50.8089 36.6409 50.059 36.6409 49.2642Z" stroke="white" stroke-width="0.8"/>
<path d="M36.6557 32.3922C36.6557 31.6124 36.6557 30.8625 36.6557 30.0827C35.1 30.0827 33.5739 30.0827 31.9885 30.0827C31.9885 30.8475 31.9885 31.5974 31.9885 32.3922C33.5294 32.3922 35.0555 32.3922 36.6557 32.3922Z" stroke="white" stroke-width="0.8"/>
<path d="M17.75 32.4072C19.3205 32.4072 20.8466 32.4072 22.4023 32.4072C22.4023 31.6274 22.4023 30.8775 22.4023 30.0827C20.8614 30.0827 19.3205 30.0827 17.75 30.0827C17.75 30.8475 17.75 31.5824 17.75 32.4072Z" stroke="white" stroke-width="0.8"/>
<path d="M54.4353 67.1859C54.4353 66.391 54.4353 65.6562 54.4353 64.8763C53.6649 64.8763 52.924 64.8763 52.1388 64.8763C52.1388 65.6412 52.1388 66.406 52.1388 67.1859C52.8944 67.1859 53.6204 67.1859 54.4353 67.1859Z" stroke="white" stroke-width="0.8"/>
<path d="M23.6173 67.1709C23.6173 66.376 23.6173 65.6412 23.6173 64.8613C22.8616 64.8613 22.1208 64.8613 21.3356 64.8613C21.3356 65.6112 21.3356 66.361 21.3356 67.1709C22.0616 67.1709 22.8024 67.1709 23.6173 67.1709Z" stroke="white" stroke-width="0.8"/>
<path d="M42.6113 21.5792C42.6113 18.2648 42.6113 14.9954 42.5965 11.726C42.5965 11.5311 42.4335 11.2611 42.2557 11.1561C40.137 9.83638 38.0034 8.54662 35.8551 7.27185C35.6773 7.16687 35.3217 7.16687 35.1439 7.27185C32.9955 8.54662 30.862 9.83638 28.7432 11.1561C28.5802 11.2611 28.4024 11.5311 28.4024 11.726C28.3876 14.9954 28.3876 18.2648 28.3876 21.5792C33.1289 21.5792 37.8256 21.5792 42.6113 21.5792ZM36.7144 10.5712C37.8108 11.2311 38.8035 11.816 39.7666 12.4609C40.0036 12.6109 40.2111 12.9858 40.2111 13.2558C40.2555 15.0254 40.2259 16.7951 40.2259 18.5798C40.2259 18.7897 40.1963 18.9997 40.1814 19.1947C38.9813 19.1947 37.8553 19.1947 36.6996 19.1947C36.7144 16.3302 36.7144 13.5257 36.7144 10.5712ZM30.7582 19.1947C30.7582 17.0951 30.7582 15.0554 30.7582 13.0158C30.7582 12.8808 30.8175 12.7009 30.9064 12.6409C32.0028 11.951 33.0992 11.2911 34.2697 10.5862C34.2697 13.5557 34.2697 16.3602 34.2697 19.2097C33.114 19.1947 31.988 19.1947 30.7582 19.1947Z" fill="#E73728" stroke="white" stroke-width="0.8"/>
<path d="M42.6113 21.5792C42.6113 18.2648 42.6113 14.9954 42.5965 11.726C42.5965 11.5311 42.4335 11.2611 42.2557 11.1561C40.137 9.83638 38.0034 8.54662 35.8551 7.27185C35.6773 7.16687 35.3217 7.16687 35.1439 7.27185C32.9955 8.54662 30.862 9.83638 28.7432 11.1561C28.5802 11.2611 28.4024 11.5311 28.4024 11.726C28.3876 14.9954 28.3876 18.2648 28.3876 21.5792C33.1289 21.5792 37.8256 21.5792 42.6113 21.5792ZM36.7144 10.5712C37.8108 11.2311 38.8035 11.816 39.7666 12.4609C40.0037 12.6109 40.2111 12.9858 40.2111 13.2558C40.2555 15.0254 40.2259 16.7951 40.2259 18.5798C40.2259 18.7897 40.1963 18.9997 40.1814 19.1947C38.9813 19.1947 37.8553 19.1947 36.6996 19.1947C36.7144 16.3302 36.7144 13.5257 36.7144 10.5712ZM30.7582 19.1947C30.7582 17.0951 30.7582 15.0554 30.7582 13.0158C30.7582 12.8808 30.8175 12.7009 30.9064 12.6409C32.0028 11.951 33.0992 11.2911 34.2697 10.5862C34.2697 13.5557 34.2697 16.3602 34.2697 19.2097C33.114 19.1947 31.988 19.1947 30.7582 19.1947Z" fill="#E73728"/>
<path d="M22.4166 51.5737C22.4166 50.7789 22.4166 50.029 22.4166 49.2642C20.8609 49.2642 19.3496 49.2642 17.7643 49.2642C17.7643 50.014 17.7643 50.7639 17.7643 51.5737C19.3052 51.5737 20.8313 51.5737 22.4166 51.5737Z" fill="#E73728"/>
<path d="M31.988 41.9905C33.5437 41.9905 35.055 41.9905 36.6403 41.9905C36.6403 41.2406 36.6403 40.4758 36.6403 39.6659C35.1143 39.6659 33.5734 39.6659 31.988 39.6659C31.988 40.4308 31.988 41.1657 31.988 41.9905Z" fill="#E73728"/>
<path d="M22.4018 39.6659C20.8313 39.6659 19.3052 39.6659 17.7495 39.6659C17.7495 40.4308 17.7495 41.1807 17.7495 41.9755C19.2756 41.9755 20.8165 41.9755 22.4018 41.9755C22.4018 41.2406 22.4018 40.4758 22.4018 39.6659Z" fill="#E73728"/>
<path d="M36.6403 49.2642C35.0994 49.2642 33.5733 49.2642 32.0028 49.2642C32.0028 50.014 32.0028 50.7639 32.0028 51.5737C33.5289 51.5737 35.0698 51.5737 36.6403 51.5737C36.6403 50.8089 36.6403 50.059 36.6403 49.2642Z" fill="#E73728"/>
<path d="M36.6552 32.3923C36.6552 31.6124 36.6552 30.8625 36.6552 30.0827C35.0994 30.0827 33.5734 30.0827 31.988 30.0827C31.988 30.8475 31.988 31.5974 31.988 32.3923C33.5289 32.3923 35.055 32.3923 36.6552 32.3923Z" fill="#E73728"/>
<path d="M17.7495 32.4073C19.32 32.4073 20.8461 32.4073 22.4018 32.4073C22.4018 31.6274 22.4018 30.8775 22.4018 30.0827C20.8609 30.0827 19.32 30.0827 17.7495 30.0827C17.7495 30.8475 17.7495 31.5824 17.7495 32.4073Z" fill="#E73728"/>
<path d="M42.6113 21.5792C42.6113 18.2648 42.6113 14.9954 42.5965 11.726C42.5965 11.5311 42.4335 11.2611 42.2557 11.1561C40.137 9.83638 38.0034 8.54662 35.8551 7.27185C35.6773 7.16687 35.3217 7.16687 35.1439 7.27185C32.9955 8.54662 30.862 9.83638 28.7432 11.1561C28.5802 11.2611 28.4024 11.5311 28.4024 11.726C28.3876 14.9954 28.3876 18.2648 28.3876 21.5792C33.1289 21.5792 37.8256 21.5792 42.6113 21.5792ZM36.7144 10.5712C37.8108 11.2311 38.8035 11.816 39.7666 12.4609C40.0037 12.6109 40.2111 12.9858 40.2111 13.2558C40.2555 15.0254 40.2259 16.7951 40.2259 18.5798C40.2259 18.7897 40.1963 18.9997 40.1814 19.1947C38.9813 19.1947 37.8553 19.1947 36.6996 19.1947C36.7144 16.3302 36.7144 13.5257 36.7144 10.5712ZM30.7582 19.1947C30.7582 17.0951 30.7582 15.0554 30.7582 13.0158C30.7582 12.8808 30.8175 12.7009 30.9064 12.6409C32.0028 11.951 33.0992 11.2911 34.2697 10.5862C34.2697 13.5557 34.2697 16.3602 34.2697 19.2097C33.114 19.1947 31.988 19.1947 30.7582 19.1947Z" stroke="white" stroke-width="0.8"/>
<path d="M22.4166 51.5737C22.4166 50.7789 22.4166 50.029 22.4166 49.2642C20.8609 49.2642 19.3496 49.2642 17.7643 49.2642C17.7643 50.014 17.7643 50.7639 17.7643 51.5737C19.3052 51.5737 20.8313 51.5737 22.4166 51.5737Z" stroke="white" stroke-width="0.8"/>
<path d="M31.988 41.9905C33.5437 41.9905 35.055 41.9905 36.6403 41.9905C36.6403 41.2406 36.6403 40.4758 36.6403 39.6659C35.1143 39.6659 33.5734 39.6659 31.988 39.6659C31.988 40.4308 31.988 41.1657 31.988 41.9905Z" stroke="white" stroke-width="0.8"/>
<path d="M22.4018 39.6659C20.8313 39.6659 19.3052 39.6659 17.7495 39.6659C17.7495 40.4308 17.7495 41.1807 17.7495 41.9755C19.2756 41.9755 20.8165 41.9755 22.4018 41.9755C22.4018 41.2406 22.4018 40.4758 22.4018 39.6659Z" stroke="white" stroke-width="0.8"/>
<path d="M36.6403 49.2642C35.0994 49.2642 33.5733 49.2642 32.0028 49.2642C32.0028 50.014 32.0028 50.7639 32.0028 51.5737C33.5289 51.5737 35.0698 51.5737 36.6403 51.5737C36.6403 50.8089 36.6403 50.059 36.6403 49.2642Z" stroke="white" stroke-width="0.8"/>
<path d="M36.6552 32.3923C36.6552 31.6124 36.6552 30.8625 36.6552 30.0827C35.0994 30.0827 33.5734 30.0827 31.988 30.0827C31.988 30.8475 31.988 31.5974 31.988 32.3923C33.5289 32.3923 35.055 32.3923 36.6552 32.3923Z" stroke="white" stroke-width="0.8"/>
<path d="M17.7495 32.4073C19.32 32.4073 20.8461 32.4073 22.4018 32.4073C22.4018 31.6274 22.4018 30.8775 22.4018 30.0827C20.8609 30.0827 19.32 30.0827 17.7495 30.0827C17.7495 30.8475 17.7495 31.5824 17.7495 32.4073Z" stroke="white" stroke-width="0.8"/>
</g>
<defs>
<clipPath id="clip0">
<rect width="71" height="72" fill="white" transform="matrix(-1 0 0 1 71 0)"/>
</clipPath>
</defs>
</svg>
