<svg width="84" height="50" viewBox="0 0 84 50" fill="none" xmlns="http://www.w3.org/2000/svg">
<path d="M62.9826 9.72222C65.5572 9.72222 68.0443 9.87847 70.4964 9.67014C72.6682 9.47917 74.0693 10.2257 75.418 11.8924C77.9576 15.0521 80.7599 18.0035 83.4221 21.0764C83.7374 21.4236 83.9651 21.9792 83.9651 22.4306C84.0001 27.3437 84.0001 32.2743 83.9826 37.1875C83.9826 39.7222 82.056 41.6319 79.5164 41.6493C78.7107 41.6493 77.8875 41.6493 77.0293 41.6493C77.0293 40.7292 77.0293 39.8785 77.0293 38.8715C77.835 38.8715 78.6582 38.8715 79.4989 38.8715C80.83 38.8715 81.1803 38.5243 81.1803 37.2569C81.1803 34.1319 81.1803 31.0069 81.1803 27.7951C60.1627 27.7951 39.1978 27.7951 18.1803 27.7951C18.1803 26.8229 18.1803 25.9549 18.1803 25.0174C32.1394 25.0174 46.081 25.0174 60.1627 25.0174C60.1627 24.6875 60.1627 24.4097 60.1627 24.1319C60.1627 17.5694 60.1627 10.9896 60.1627 4.42708C60.1627 3.125 59.8125 2.76042 58.5164 2.76042C43.7165 2.76042 28.9167 2.76042 14.1344 2.76042C12.8908 2.76042 12.5406 3.125 12.5406 4.375C12.5406 15.3125 12.5406 26.25 12.5406 37.1875C12.5406 38.5417 12.8733 38.8542 14.257 38.8715C15.0451 38.8715 15.8333 38.8715 16.674 38.8715C16.674 39.7917 16.674 40.6597 16.674 41.5972C15.5531 41.5972 14.3971 41.7361 13.2937 41.5625C11.2795 41.2674 9.7207 39.3403 9.7207 37.3264C9.7207 26.3368 9.7207 15.3472 9.7207 4.34028C9.73822 1.96181 11.6999 0 14.1344 0C28.9342 0 43.7341 0 58.5164 0C61.056 0 62.9651 1.94444 62.9826 4.46181C62.9826 6.18056 62.9826 7.88194 62.9826 9.72222ZM81.1102 24.9826C81.3554 23.6285 81.1452 22.5694 80.1819 21.5278C77.5547 18.7326 75.0852 15.7986 72.528 12.9514C72.3004 12.691 71.845 12.5174 71.4947 12.5174C68.9025 12.4826 66.2929 12.5 63.7007 12.5C63.473 12.5 63.2628 12.5347 63.0527 12.5521C63.0527 16.7361 63.0527 20.8507 63.0527 24.9826C69.1127 24.9826 75.0852 24.9826 81.1102 24.9826Z" fill="#222327" stroke="white"/>
<path d="M37.7621 40.9724C37.7621 45.7814 33.4886 50.0002 28.637 50.0175C23.803 50.0175 19.5294 45.764 19.5469 40.955C19.5644 36.146 23.838 31.9446 28.7071 31.962C33.5061 31.962 37.7621 36.2154 37.7621 40.9724ZM28.6896 34.7224C25.029 34.705 22.3668 37.3092 22.3493 40.9203C22.3318 44.6009 24.9589 47.205 28.672 47.2224C32.28 47.2224 34.9423 44.6182 34.9598 41.0592C34.9773 37.3786 32.3676 34.7397 28.6896 34.7224Z" fill="#E73728" stroke="white"/>
<path d="M65.1192 50C60.2677 50.0173 55.9941 45.7986 55.9766 40.9895C55.9591 36.2326 60.2327 31.9618 64.9966 31.9444C69.8657 31.927 74.1568 36.1284 74.1918 40.9201C74.2093 45.7291 69.9533 49.9826 65.1192 50ZM58.779 40.9201C58.7439 44.5659 61.3536 47.2048 64.9966 47.2395C68.6747 47.2743 71.3544 44.6875 71.3895 41.0937C71.4245 37.4479 68.8323 34.7743 65.2068 34.7395C61.4762 34.7048 58.814 37.2569 58.779 40.9201Z" fill="#E73728" stroke="white"/>
<path d="M54.5226 41.6321C49.3908 41.6321 44.3291 41.6321 39.2148 41.6321C39.2148 40.7293 39.2148 39.8786 39.2148 38.9585C44.2941 38.9585 49.3733 38.9585 54.5226 38.9585C54.5226 39.8092 54.5226 40.6946 54.5226 41.6321Z" fill="#222327" stroke="white" stroke-width="0.8"/>
<path d="M6.90075 18.125C6.90075 19.0451 6.90075 19.8958 6.90075 20.7986C4.60634 20.7986 2.32944 20.7986 0 20.7986C0 19.9479 0 19.0625 0 18.125C2.25938 18.125 4.53628 18.125 6.90075 18.125Z" fill="#E73728" stroke="white"/>
<path d="M6.91742 13.9585C6.91742 14.8613 6.91742 15.6946 6.91742 16.5974C5.07839 16.5974 3.27439 16.5974 1.38281 16.5974C1.38281 15.7293 1.38281 14.8613 1.38281 13.9585C3.23936 13.9585 5.07839 13.9585 6.91742 13.9585Z" fill="#E73728" stroke="white"/>
<path d="M2.78516 9.75708C4.15129 9.75708 5.4824 9.75708 6.88357 9.75708C6.88357 10.6425 6.88357 11.5105 6.88357 12.448C5.53495 12.448 4.18632 12.448 2.78516 12.448C2.78516 11.58 2.78516 10.7119 2.78516 9.75708Z" fill="#E73728" stroke="white"/>
<path d="M27.48 43.9411C26.8845 43.3508 26.289 42.7431 25.7461 42.2049C27.1122 40.8334 28.4784 39.4619 29.862 38.073C30.3875 38.6286 31.0005 39.2536 31.5434 39.8265C30.2123 41.1633 28.8462 42.5348 27.48 43.9411Z" fill="#E73728" stroke="white"/>
<path d="M66.2935 38.0208C66.854 38.611 67.4495 39.236 67.9925 39.7916C66.6438 41.1284 65.2602 42.4826 63.859 43.8714C63.3336 43.3333 62.703 42.7083 62.1426 42.1353C63.5087 40.7812 64.8573 39.4444 66.2935 38.0208Z" fill="#E73728" stroke="white"/>
</svg>
