<svg width="62" height="76" viewBox="0 0 62 76" fill="none" xmlns="http://www.w3.org/2000/svg">
<g clip-path="url(#clip0)">
<path d="M9.05781 7.55565C9.05781 4.97374 9.05781 2.50271 9.05781 0C9.91354 0 10.7047 0 11.6088 0C11.6088 2.48687 11.6088 4.97374 11.6088 7.50813C24.5739 7.50813 37.4422 7.50813 50.375 7.50813C50.375 5.00542 50.375 2.53439 50.375 0.0158399C51.2469 0.0158399 52.0703 0.0158399 52.9422 0.0158399C52.9422 2.48687 52.9422 4.9579 52.9422 7.57149C53.7172 7.57149 54.4276 7.57149 55.138 7.57149C59.126 7.57149 62.0161 10.391 62.0161 14.2876C62.0161 32.6619 62.0161 51.0363 62.0161 69.3948C62.0161 72.6419 59.7557 75.2872 56.5427 75.905C56.1713 75.9683 55.8 75.9842 55.4125 75.9842C39.1052 75.9842 22.7979 76 6.50677 75.9842C3.01927 75.9842 0 73.0063 0 69.5848C0 51.0521 0 32.5194 0 14.0025C0 10.486 3.00312 7.57149 6.60364 7.55565C7.37864 7.55565 8.15364 7.55565 9.05781 7.55565ZM2.58333 24.0767C2.58333 24.3777 2.58333 24.6311 2.58333 24.8845C2.58333 37.1605 2.58333 49.4206 2.58333 61.6965C2.58333 64.4844 4.00416 65.8466 6.87812 65.8466C17.938 65.8466 28.9818 65.8466 40.0416 65.8466C44.5517 65.8466 49.0618 65.8587 53.5718 65.8512C54.2284 65.8501 54.885 65.8486 55.5416 65.8466C57.6729 65.8466 59.1422 64.6111 59.3843 62.6469C59.4328 62.2351 59.4166 61.8074 59.4166 61.3798C59.4166 49.2622 59.4166 37.1605 59.4166 25.0429C59.4166 24.7261 59.4166 24.4252 59.4166 24.0767C40.4614 24.0767 21.587 24.0767 2.58333 24.0767ZM11.7057 10.1376C11.4797 11.1038 11.7219 11.6899 12.5615 12.2126C13.7724 12.9887 14.4021 14.2084 14.1599 15.6974C13.8854 17.3447 12.2708 18.802 10.6401 18.9604C9.02552 19.103 7.26562 17.9308 6.66823 16.2835C6.11927 14.8103 6.71666 13.0204 8.26666 12.1017C9.18698 11.5632 9.0901 10.9296 8.97708 10.1059C8.15364 10.1059 7.37864 10.1059 6.60364 10.1059C4.06875 10.1059 2.59948 11.5632 2.58333 14.05C2.58333 16.2993 2.58333 18.5327 2.58333 20.782C2.58333 21.0038 2.61562 21.2414 2.63177 21.4473C21.6031 21.4473 40.4937 21.4473 59.4166 21.4473C59.4166 18.802 59.4651 16.2043 59.4005 13.6223C59.3682 12.1017 58.6416 10.8187 57.0916 10.4227C55.7838 10.09 54.363 10.1217 53.039 9.995C52.8453 11.0563 52.9906 11.6424 53.8302 12.1651C55.0573 12.9254 55.7031 14.1451 55.5093 15.6182C55.2833 17.2814 53.6364 18.802 51.9734 18.9604C50.3911 19.1188 48.6635 17.9625 48.0338 16.3468C47.4364 14.842 48.0177 13.0204 49.6 12.1017C50.5364 11.5632 50.4073 10.9137 50.3265 10.1376C37.4099 10.1376 24.5578 10.1376 11.7057 10.1376ZM2.58333 67.0029C2.58333 67.8424 2.58333 68.4919 2.58333 69.1413C2.58333 72.1192 3.92344 73.4498 6.95885 73.4498C17.7281 73.4498 28.4812 73.4498 39.2505 73.4498C44.6917 73.4498 50.1166 73.4498 55.5578 73.4498C57.6406 73.4498 59.1422 72.2618 59.3682 70.3135C59.4974 69.2839 59.3843 68.2226 59.3843 67.0188C57.6083 68.4602 55.5901 68.381 53.5718 68.381C38.6208 68.3652 23.6536 68.3652 8.7026 68.381C6.5875 68.3968 4.47239 68.5394 2.58333 67.0029ZM10.301 13.8916C9.44531 13.9075 9.04166 14.3193 9.04166 15.1747C9.04166 16.0142 9.46145 16.426 10.3172 16.426C11.2052 16.426 11.6411 15.9983 11.6088 15.1113C11.6088 14.2876 11.1729 13.8916 10.301 13.8916ZM51.6666 13.8916C50.8109 13.8916 50.3911 14.3035 50.3911 15.143C50.3911 16.0142 50.8271 16.4419 51.7312 16.426C52.5708 16.4102 52.9906 15.9825 52.9745 15.1271C52.9422 14.3035 52.5224 13.8916 51.6666 13.8916Z" fill="#222327"/>
<path d="M53.5718 68.381C55.5901 68.381 57.6083 68.4602 59.3843 67.0188C59.3843 68.2226 59.4974 69.2839 59.3682 70.3135C59.1422 72.2618 57.6406 73.4498 55.5578 73.4498C50.1166 73.4498 44.6917 73.4498 39.2505 73.4498C28.4812 73.4498 17.7281 73.4498 6.95885 73.4498C3.92344 73.4498 2.58333 72.1192 2.58333 69.1413C2.58333 68.4919 2.58333 67.8424 2.58333 67.0029C4.47239 68.5394 6.5875 68.3968 8.7026 68.381C23.6536 68.3652 38.6208 68.3652 53.5718 68.381ZM53.5718 68.381V65.8512M53.5718 65.8512C49.0618 65.8587 44.5517 65.8466 40.0416 65.8466C28.9818 65.8466 17.938 65.8466 6.87812 65.8466C4.00416 65.8466 2.58333 64.4844 2.58333 61.6965C2.58333 49.4206 2.58333 37.1605 2.58333 24.8845C2.58333 24.6311 2.58333 24.3777 2.58333 24.0767C21.587 24.0767 40.4614 24.0767 59.4166 24.0767C59.4166 24.4252 59.4166 24.7261 59.4166 25.0429C59.4166 37.1605 59.4166 49.2622 59.4166 61.3798C59.4166 61.8074 59.4328 62.2351 59.3843 62.6469C59.1422 64.6111 57.6729 65.8466 55.5416 65.8466C54.885 65.8486 54.2284 65.8501 53.5718 65.8512ZM9.05781 7.55565C9.05781 4.97374 9.05781 2.50271 9.05781 0C9.91354 0 10.7047 0 11.6088 0C11.6088 2.48687 11.6088 4.97374 11.6088 7.50813C24.5739 7.50813 37.4422 7.50813 50.375 7.50813C50.375 5.00542 50.375 2.53439 50.375 0.0158399C51.2469 0.0158399 52.0703 0.0158399 52.9422 0.0158399C52.9422 2.48687 52.9422 4.9579 52.9422 7.57149C53.7172 7.57149 54.4276 7.57149 55.138 7.57149C59.126 7.57149 62.0161 10.391 62.0161 14.2876C62.0161 32.6619 62.0161 51.0363 62.0161 69.3948C62.0161 72.6419 59.7557 75.2872 56.5427 75.905C56.1713 75.9683 55.8 75.9842 55.4125 75.9842C39.1052 75.9842 22.7979 76 6.50677 75.9842C3.01927 75.9842 0 73.0063 0 69.5848C0 51.0521 0 32.5194 0 14.0025C0 10.486 3.00312 7.57149 6.60364 7.55565C7.37864 7.55565 8.15364 7.55565 9.05781 7.55565ZM11.7057 10.1376C11.4797 11.1038 11.7219 11.6899 12.5615 12.2126C13.7724 12.9887 14.4021 14.2084 14.1599 15.6974C13.8854 17.3447 12.2708 18.802 10.6401 18.9604C9.02552 19.103 7.26562 17.9308 6.66823 16.2835C6.11927 14.8103 6.71666 13.0204 8.26666 12.1017C9.18698 11.5632 9.0901 10.9296 8.97708 10.1059C8.15364 10.1059 7.37864 10.1059 6.60364 10.1059C4.06875 10.1059 2.59948 11.5632 2.58333 14.05C2.58333 16.2993 2.58333 18.5327 2.58333 20.782C2.58333 21.0038 2.61562 21.2414 2.63177 21.4473C21.6031 21.4473 40.4937 21.4473 59.4166 21.4473C59.4166 18.802 59.4651 16.2043 59.4005 13.6223C59.3682 12.1017 58.6416 10.8187 57.0916 10.4227C55.7838 10.09 54.363 10.1217 53.039 9.995C52.8453 11.0563 52.9906 11.6424 53.8302 12.1651C55.0573 12.9254 55.7031 14.1451 55.5093 15.6182C55.2833 17.2814 53.6364 18.802 51.9734 18.9604C50.3911 19.1188 48.6635 17.9625 48.0338 16.3468C47.4364 14.842 48.0177 13.0204 49.6 12.1017C50.5364 11.5632 50.4073 10.9137 50.3265 10.1376C37.4099 10.1376 24.5578 10.1376 11.7057 10.1376ZM10.301 13.8916C9.44531 13.9075 9.04166 14.3193 9.04166 15.1747C9.04166 16.0142 9.46145 16.426 10.3172 16.426C11.2052 16.426 11.6411 15.9983 11.6088 15.1113C11.6088 14.2876 11.1729 13.8916 10.301 13.8916ZM51.6666 13.8916C50.8109 13.8916 50.3911 14.3035 50.3911 15.143C50.3911 16.0142 50.8271 16.4419 51.7312 16.426C52.5708 16.4102 52.9906 15.9825 52.9745 15.1271C52.9422 14.3035 52.5224 13.8916 51.6666 13.8916Z" stroke="white" stroke-width="0.8"/>
<path d="M5.19922 72.1349C5.19922 71.3113 5.19922 70.5351 5.19922 69.7114C22.4107 69.7114 39.5737 69.7114 56.8013 69.7114C56.8013 70.5193 56.8013 71.2954 56.8013 72.1349C39.6383 72.1349 22.4591 72.1349 5.19922 72.1349Z" fill="#222327" stroke="white" stroke-width="0.8"/>
<path d="M15.9524 39.1179C15.9311 39.1499 15.6057 39.2246 14.9764 39.3419C14.3577 39.4592 13.9311 39.5392 13.6964 39.5819V38.2859C14.9977 37.9766 15.8884 37.5072 16.3684 36.8779H17.6644V49.8379H15.9524V39.1179ZM25.3891 49.9819C24.3758 49.9819 23.5971 49.7046 23.0531 49.1499C22.5091 48.5952 22.2265 47.8006 22.2051 46.7659V46.6219H23.9171C23.9171 47.2832 24.0238 47.7739 24.2371 48.0939C24.4611 48.4032 24.8505 48.5579 25.4051 48.5579C26.3651 48.5579 26.8451 47.6352 26.8451 45.7899V43.8219C26.6745 44.0992 26.4291 44.3179 26.1091 44.4779C25.7998 44.6379 25.4158 44.7179 24.9571 44.7179C23.9438 44.7179 23.2238 44.3979 22.7971 43.7579C22.3811 43.1072 22.1731 42.1792 22.1731 40.9739C22.1731 39.7046 22.4345 38.6859 22.9571 37.9179C23.4798 37.1499 24.2905 36.7659 25.3891 36.7659C26.4558 36.7659 27.2505 37.1606 27.7731 37.9499C28.3065 38.7286 28.5731 39.7472 28.5731 41.0059V45.3579C28.5731 46.7552 28.3278 47.8752 27.8371 48.7179C27.3465 49.5606 26.5305 49.9819 25.3891 49.9819ZM25.3891 43.4219C26.0185 43.4219 26.5038 43.1232 26.8451 42.5259V40.6059C26.8451 38.9846 26.3598 38.1739 25.3891 38.1739C24.8558 38.1739 24.4718 38.3979 24.2371 38.8459C24.0131 39.2832 23.9011 39.8539 23.9011 40.5579C23.9011 41.2086 23.9278 41.7259 23.9811 42.1099C24.0345 42.4939 24.1678 42.8086 24.3811 43.0539C24.5945 43.2992 24.9305 43.4219 25.3891 43.4219ZM34.8173 49.9819C33.8039 49.9819 33.0253 49.7046 32.4813 49.1499C31.9373 48.5952 31.6546 47.8006 31.6333 46.7659V46.6219H33.3453C33.3453 47.2832 33.4519 47.7739 33.6653 48.0939C33.8893 48.4032 34.2786 48.5579 34.8333 48.5579C35.7933 48.5579 36.2733 47.6352 36.2733 45.7899V43.8219C36.1026 44.0992 35.8573 44.3179 35.5373 44.4779C35.2279 44.6379 34.8439 44.7179 34.3853 44.7179C33.3719 44.7179 32.6519 44.3979 32.2253 43.7579C31.8093 43.1072 31.6013 42.1792 31.6013 40.9739C31.6013 39.7046 31.8626 38.6859 32.3853 37.9179C32.9079 37.1499 33.7186 36.7659 34.8173 36.7659C35.8839 36.7659 36.6786 37.1606 37.2013 37.9499C37.7346 38.7286 38.0013 39.7472 38.0013 41.0059V45.3579C38.0013 46.7552 37.7559 47.8752 37.2653 48.7179C36.7746 49.5606 35.9586 49.9819 34.8173 49.9819ZM34.8173 43.4219C35.4466 43.4219 35.9319 43.1232 36.2733 42.5259V40.6059C36.2733 38.9846 35.7879 38.1739 34.8173 38.1739C34.2839 38.1739 33.8999 38.3979 33.6653 38.8459C33.4413 39.2832 33.3293 39.8539 33.3293 40.5579C33.3293 41.2086 33.3559 41.7259 33.4093 42.1099C33.4626 42.4939 33.5959 42.8086 33.8093 43.0539C34.0226 43.2992 34.3586 43.4219 34.8173 43.4219ZM44.2134 49.9659C43.0934 49.9659 42.2881 49.6512 41.7974 49.0219C41.3174 48.3819 41.0774 47.4432 41.0774 46.2059H42.7894C42.7894 46.9312 42.8854 47.5126 43.0774 47.9499C43.2801 48.3872 43.6694 48.6059 44.2454 48.6059C44.6827 48.6059 45.0081 48.4779 45.2214 48.2219C45.4347 47.9659 45.5681 47.6299 45.6214 47.2139C45.6854 46.7872 45.7174 46.2219 45.7174 45.5179C45.7174 44.8672 45.6801 44.3499 45.6054 43.9659C45.5414 43.5712 45.4027 43.2726 45.1894 43.0699C44.9867 42.8566 44.6774 42.7499 44.2614 42.7499C43.9307 42.7499 43.6374 42.8512 43.3814 43.0539C43.1361 43.2566 42.9494 43.5126 42.8214 43.8219H41.3654V36.8779H46.9494V38.5899H42.9174L42.8054 42.1739C43.2641 41.6939 43.8881 41.4539 44.6774 41.4539C45.6694 41.4539 46.3734 41.7952 46.7894 42.4779C47.2161 43.1499 47.4294 44.0886 47.4294 45.2939C47.4294 46.7659 47.1894 47.9126 46.7094 48.7339C46.2294 49.5552 45.3974 49.9659 44.2134 49.9659Z" fill="#E73728"/>
</g>
<defs>
<clipPath id="clip0">
<rect width="62" height="76" fill="white"/>
</clipPath>
</defs>
</svg>
