<svg width="52" height="72" viewBox="0 0 52 72" fill="none" xmlns="http://www.w3.org/2000/svg">
<g clip-path="url(#clip0)">
<path d="M0 36C0 25.305 0 14.61 0 3.9C0 1.635 1.6864 0 4.05356 0C18.6742 0 33.2949 0 47.9155 0C50.3136 0 51.9845 1.62 51.9845 3.96C51.9845 21.765 51.9845 39.555 52 57.36C52 57.9 51.8298 58.275 51.443 58.665C47.0027 62.94 42.5778 67.245 38.122 71.535C37.8435 71.79 37.3793 72 37.008 72C25.9768 72.03 14.9456 72.03 3.89884 72.015C1.71735 72 0 70.305 0 68.175C0 57.45 0 46.725 0 36ZM38.3695 67.86C38.648 67.605 38.8027 67.47 38.942 67.335C42.2993 64.08 45.6412 60.825 49.014 57.585C49.3698 57.24 49.5091 56.895 49.5091 56.415C49.4936 38.925 49.5091 21.42 49.5091 3.93C49.5091 2.685 49.2306 2.415 47.9 2.415C33.2794 2.415 18.6587 2.415 4.05356 2.415C2.75394 2.4 2.47545 2.67 2.47545 3.945C2.47545 25.29 2.47545 46.635 2.47545 67.98C2.47545 69.36 2.723 69.6 4.13091 69.6C14.4505 69.6 24.7545 69.6 35.0741 69.6C35.3216 69.6 35.5692 69.6 35.8941 69.6C35.8941 69.255 35.8941 68.985 35.8941 68.715C35.8941 65.835 35.8786 62.97 35.8941 60.09C35.9095 58.095 37.6424 56.415 39.7001 56.4C41.5567 56.385 43.4133 56.4 45.2699 56.4C45.44 56.4 45.6102 56.445 45.7649 56.46C45.7649 57.255 45.7649 57.99 45.7649 58.8C45.44 58.8 45.1616 58.8 44.8831 58.8C43.1348 58.8 41.371 58.785 39.6227 58.8C38.8027 58.8 38.4005 59.115 38.385 59.835C38.3695 62.46 38.3695 65.07 38.3695 67.86Z" fill="#222327" stroke="white" stroke-width="0.8"/>
<path d="M9.93359 41.955C9.93359 41.175 9.93359 40.425 9.93359 39.645C20.6399 39.645 31.3308 39.645 42.0371 39.645C42.0371 40.41 42.0371 41.16 42.0371 41.955C31.3617 41.955 20.6863 41.955 9.93359 41.955Z" fill="#222327" stroke="white" stroke-width="0.8"/>
<path d="M42.051 45.6602C42.051 46.4552 42.051 47.1902 42.051 47.9702C31.3601 47.9702 20.7002 47.9702 9.96289 47.9702C9.96289 47.2202 9.96289 46.4702 9.96289 45.6602C20.6228 45.6602 31.3137 45.6602 42.051 45.6602Z" fill="#222327" stroke="white" stroke-width="0.8"/>
<path d="M9.93359 53.955C9.93359 53.16 9.93359 52.425 9.93359 51.645C20.6554 51.645 31.3308 51.645 42.0526 51.645C42.0526 52.425 42.0526 53.16 42.0526 53.955C31.3617 53.955 20.6864 53.955 9.93359 53.955Z" fill="#222327" stroke="white" stroke-width="0.8"/>
<path d="M9.93359 59.955C9.93359 59.16 9.93359 58.425 9.93359 57.645C16.9422 57.645 23.9044 57.645 30.9131 57.645C30.9131 58.425 30.9131 59.16 30.9131 59.955C23.9354 59.955 16.9732 59.955 9.93359 59.955Z" fill="#222327" stroke="white" stroke-width="0.8"/>
<path d="M34.0074 7.24487C34.0074 8.00987 34.0074 8.75987 34.0074 9.55487C28.6852 9.55487 23.3784 9.55487 18.0098 9.55487C18.0098 8.80487 18.0098 8.05487 18.0098 7.24487C23.332 7.24487 28.6542 7.24487 34.0074 7.24487Z" fill="#222327" stroke="white" stroke-width="0.8"/>
<path d="M29.2722 20.6402C30.9586 20.6402 32.645 20.6552 34.3159 20.6402C34.9966 20.6402 35.5536 20.7752 35.8166 21.4502C36.0797 22.1252 35.7083 22.5902 35.2132 23.0102C33.991 24.0452 32.7687 25.0802 31.531 26.1002C31.1906 26.3852 31.1752 26.6402 31.2989 27.0152C31.7786 28.5152 32.2272 30.0302 32.7069 31.5302C32.8925 32.0852 32.8461 32.5802 32.3819 32.9702C31.8869 33.3902 31.3608 33.3302 30.8038 33.0302C29.4114 32.2652 28.0035 31.5452 26.6265 30.7652C26.1624 30.4952 25.8065 30.5252 25.3578 30.7802C23.9963 31.5452 22.6194 32.2652 21.2424 33.0152C20.7009 33.3152 20.1749 33.4052 19.6643 33.0002C19.1692 32.6102 19.1073 32.1002 19.3085 31.5152C19.7881 30.0452 20.2213 28.5452 20.7009 27.0752C20.8401 26.6402 20.7937 26.3552 20.4069 26.0552C19.1537 25.0502 17.9624 23.9852 16.7247 22.9652C16.2296 22.5602 15.9357 22.0952 16.1832 21.4652C16.4307 20.8352 16.9568 20.6702 17.6221 20.6852C19.1228 20.7002 20.6081 20.6702 22.1088 20.7002C22.5575 20.7152 22.7896 20.5802 22.9752 20.1752C23.5322 18.8852 24.1511 17.6252 24.7235 16.3352C24.9865 15.7352 25.3269 15.2702 26.0695 15.3002C26.7503 15.3302 27.0597 15.7802 27.3227 16.3502C27.9261 17.7452 28.6069 19.1852 29.2722 20.6402ZM22.4956 29.5352C23.5013 28.9952 24.3522 28.5602 25.1722 28.0952C25.7756 27.7502 26.3171 27.7952 26.905 28.1402C27.6941 28.6052 28.5141 29.0252 29.4733 29.5352C29.1484 28.4852 28.9163 27.5702 28.6069 26.6852C28.3439 25.9352 28.5141 25.3952 29.1329 24.9002C29.8446 24.3452 30.5099 23.7452 31.3454 23.0252C30.4016 23.0252 29.6744 22.9802 28.9782 23.0402C28.0035 23.1302 27.431 22.7252 27.1061 21.8552C26.7967 21.0752 26.4099 20.3402 25.9922 19.4102C25.528 20.4002 25.1258 21.1952 24.7854 22.0202C24.4914 22.7402 23.9963 23.0702 23.1918 23.0402C22.4028 23.0102 21.6292 23.0252 20.639 23.0252C21.5054 23.7752 22.2171 24.3752 22.9288 24.9752C23.4548 25.4102 23.6405 25.9052 23.4084 26.5652C23.0835 27.4952 22.836 28.4252 22.4956 29.5352Z" fill="#E73728" stroke="white"/>
</g>
<defs>
<clipPath id="clip0">
<rect width="52" height="72" fill="white"/>
</clipPath>
</defs>
</svg>
