<svg width="20" height="19" viewBox="0 0 20 19" fill="none" xmlns="http://www.w3.org/2000/svg">
<path d="M13.8578 8.09202C12.5453 5.98797 11.3032 3.9746 10.0259 1.9159C9.61191 2.62329 9.21551 3.29441 8.82792 3.95647C8.50199 4.50969 8.18487 5.07198 7.85014 5.6252C7.6123 6.0061 7.28637 6.10587 6.96044 5.90634C6.63452 5.70682 6.55524 5.36219 6.78427 4.96315C7.62992 3.44859 8.50199 1.9431 9.37407 0.437616C9.7088 -0.142813 10.2461 -0.142813 10.5897 0.419477C12.2017 3.03141 13.8049 5.65241 15.4081 8.26434C15.7869 8.89011 15.5226 9.3345 14.7651 9.3345C10.8451 9.3345 6.92521 9.3345 3.00527 9.3345C2.47674 9.3345 1.95702 9.3345 1.35802 9.3345C1.48134 10.0419 1.59586 10.7039 1.71037 11.3569C1.97464 12.8987 2.2389 14.4495 2.48555 15.9913C2.64411 16.998 3.44571 17.6872 4.51158 17.6963C6.55524 17.7054 8.59008 17.6963 10.6337 17.6963C12.2017 17.6963 13.7785 17.6963 15.3465 17.6963C16.6149 17.6963 17.3108 16.9436 17.4694 15.6557C17.6368 14.25 17.9363 12.8624 18.1829 11.4658C18.3415 10.5588 18.5088 9.65192 18.6762 8.75407C18.7731 8.23713 19.0286 7.97412 19.3985 8.02854C19.8125 8.09202 20.0768 8.52734 19.9799 9.03522C19.6276 11.0214 19.2576 13.0075 18.9052 15.0028C18.826 15.429 18.7731 15.8643 18.7026 16.2996C18.4296 17.8595 17.1523 18.9932 15.6107 18.9932C11.867 19.0023 8.12321 19.0023 4.37945 18.9932C2.80267 18.9841 1.56062 17.8414 1.27874 16.1999C0.873532 13.8328 0.450707 11.4748 0.0366911 9.11684C-0.0954416 8.3641 0.115971 8.08295 0.88234 8.08295C4.99607 8.08295 9.10099 8.08295 13.2147 8.08295C13.4085 8.09202 13.5759 8.09202 13.8578 8.09202Z" fill="white"/>
</svg>
