<svg width="20" height="20" viewBox="0 0 20 20" fill="none" xmlns="http://www.w3.org/2000/svg">
<path d="M13.8578 8.11204C12.5453 6.00799 11.3032 3.99462 10.0259 1.93591C9.61191 2.64331 9.21551 3.31443 8.82792 3.97649C8.50199 4.52971 8.18487 5.092 7.85014 5.64522C7.6123 6.02612 7.28637 6.12589 6.96044 5.92636C6.63452 5.72684 6.55524 5.38221 6.78427 4.98317C7.62992 3.46861 8.50199 1.96312 9.37407 0.457635C9.7088 -0.122793 10.2461 -0.122793 10.5897 0.439497C12.2017 3.05143 13.8049 5.67243 15.4081 8.28436C15.7869 8.91013 15.5226 9.35452 14.7651 9.35452C10.8451 9.35452 6.92521 9.35452 3.00527 9.35452C2.47674 9.35452 1.95702 9.35452 1.35802 9.35452C1.48134 10.0619 1.59586 10.724 1.71037 11.377C1.97464 12.9187 2.2389 14.4695 2.48555 16.0113C2.64411 17.018 3.44571 17.7073 4.51158 17.7163C6.55524 17.7254 8.59008 17.7163 10.6337 17.7163C12.2017 17.7163 13.7785 17.7163 15.3465 17.7163C16.6149 17.7163 17.3108 16.9636 17.4694 15.6758C17.6368 14.27 17.9363 12.8824 18.1829 11.4858C18.3415 10.5789 18.5088 9.67194 18.6762 8.77409C18.7731 8.25715 19.0286 7.99414 19.3985 8.04856C19.8125 8.11204 20.0768 8.54736 19.9799 9.05524C19.6276 11.0414 19.2576 13.0275 18.9052 15.0228C18.826 15.449 18.7731 15.8843 18.7026 16.3197C18.4296 17.8796 17.1523 19.0132 15.6107 19.0132C11.867 19.0223 8.12321 19.0223 4.37945 19.0132C2.80267 19.0041 1.56062 17.8614 1.27874 16.2199C0.873532 13.8528 0.450707 11.4949 0.0366911 9.13686C-0.0954416 8.38412 0.115971 8.10297 0.88234 8.10297C4.99607 8.10297 9.10099 8.10297 13.2147 8.10297C13.4085 8.11204 13.5759 8.11204 13.8578 8.11204Z" fill="#919194"/>
</svg>
