<svg width="18" height="18" viewBox="0 0 18 18" fill="none" xmlns="http://www.w3.org/2000/svg">
<path d="M9.00152 17.997C7.33113 17.997 5.66738 17.997 3.99699 17.997C1.63061 17.9904 0.00662851 16.3628 0 13.9844C0 10.6494 0 7.32106 0 3.98606C0 1.90666 1.2793 0.365389 3.28111 0.0398606C3.4866 0 3.70534 0 3.91082 0C7.2781 0 10.6454 0 14.0193 0C14.1519 0 14.2911 0.00664343 14.4104 0.0531474C14.7219 0.166086 14.9141 0.498257 14.8611 0.817142C14.8081 1.17589 14.5363 1.41505 14.1386 1.41505C12.8461 1.42169 11.5535 1.42169 10.2609 1.42169C8.13981 1.42169 6.01869 1.41505 3.89756 1.42834C2.65803 1.42834 1.72341 2.19233 1.48479 3.37486C1.44502 3.56752 1.43839 3.77347 1.43839 3.96613C1.43839 7.33435 1.43176 10.6959 1.43839 14.0641C1.43839 15.5058 2.45918 16.5289 3.90419 16.5289C7.29799 16.5355 10.6852 16.5355 14.079 16.5289C15.5107 16.5289 16.5381 15.4925 16.5381 14.0509C16.5448 12.6225 16.5381 11.1942 16.5448 9.76584C16.5448 9.61304 16.5514 9.4536 16.6044 9.31409C16.7171 8.9952 17.0485 8.83576 17.38 8.89555C17.7313 8.96198 17.9566 9.22772 17.9566 9.63297C17.9566 11.2141 17.9566 12.8019 17.95 14.383C17.95 14.5026 17.9367 14.6288 17.9169 14.7484C17.5854 16.6817 16.0741 17.9771 14.1055 17.997C13.257 18.0037 12.4019 17.997 11.5535 17.997C10.705 17.997 9.84997 17.997 9.00152 17.997Z" fill="#27AE60"/>
<path d="M8.7894 11.1942C8.90872 11.0082 8.96837 10.8819 9.06117 10.7889C11.58 8.25778 14.1055 5.72664 16.6376 3.20878C16.8033 3.04269 17.0552 2.92311 17.2872 2.8766C17.5523 2.81681 17.7777 2.97626 17.9102 3.22206C18.0494 3.48116 18.0229 3.73361 17.8572 3.97277C17.7909 4.05913 17.7114 4.13886 17.6318 4.21193C14.9009 6.95567 12.1633 9.69276 9.43237 12.4299C8.91535 12.948 8.57066 12.948 8.06027 12.4365C6.77434 11.1477 5.48178 9.85221 4.19585 8.55674C4.07653 8.43715 3.95722 8.27771 3.91745 8.11827C3.83791 7.80603 3.93071 7.527 4.21573 7.34099C4.50739 7.16162 4.8587 7.19483 5.12384 7.46057C5.81983 8.1382 6.5092 8.82247 7.19856 9.52003C7.70233 10.0449 8.19947 10.5763 8.7894 11.1942Z" fill="#27AE60"/>
</svg>
