<svg width="20" height="20" viewBox="0 0 20 20" fill="none" xmlns="http://www.w3.org/2000/svg">
<path d="M19.0385 7.88462L18.4615 7.78846C17.9808 7.69231 17.5962 7.59615 17.1154 7.59615V7.5C17.0192 7.11539 16.8269 6.73077 16.7308 6.44231C16.6346 6.34615 16.7308 6.34615 16.7308 6.25C17.1154 5.76923 17.5 5.19231 17.7885 4.71154C18.0769 4.32692 18.0769 4.03846 17.6923 3.75C17.1154 3.17308 16.5385 2.59615 15.9615 2.01923C15.6731 1.73077 15.3846 1.63462 15 1.92308L14.4231 2.30769C14.0385 2.59615 13.75 2.78846 13.3654 3.07692H13.2692C13.0769 2.98077 12.8846 2.88462 12.6923 2.78846C12.5 2.69231 12.4038 2.69231 12.2115 2.59615C12.1154 2.59615 12.1154 2.59615 12.1154 2.5C12.0192 1.92308 11.9231 1.25 11.8269 0.576923C11.7308 0.192308 11.5385 0 11.0577 0H8.65385C8.17308 0 7.98077 0.192308 7.88462 0.576923L7.78846 1.25C7.69231 1.73077 7.69231 2.11538 7.59615 2.59615C7.59615 2.59615 7.59615 2.69231 7.5 2.69231C7.30769 2.69231 7.21154 2.78846 7.01923 2.88462C6.82692 2.88462 6.63462 2.98077 6.44231 3.07692C6.34615 3.07692 6.34615 3.07692 6.34615 3.07692C5.76923 2.69231 5.28846 2.30769 4.71154 1.92308C4.32692 1.63462 4.03846 1.73077 3.75 2.01923C3.17308 2.59615 2.59615 3.17308 2.01923 3.75C1.73077 4.03846 1.73077 4.32692 2.01923 4.71154C2.30769 5.28846 2.69231 5.76923 3.07692 6.25C3.07692 6.34615 3.17308 6.34615 3.07692 6.44231C2.88462 6.73077 2.78846 7.11539 2.59615 7.5C2.59615 7.59615 2.59615 7.59615 2.5 7.59615C1.92308 7.69231 1.34615 7.78846 0.769231 7.88462H0.576923C0.192308 7.98077 0 8.17308 0 8.65385C0 9.51923 0 10.2885 0 11.1538C0 11.6346 0.192308 11.8269 0.673077 11.9231H0.961538C1.44231 12.0192 2.01923 12.1154 2.5 12.2115C2.59615 12.2115 2.59615 12.2115 2.59615 12.3077C2.69231 12.6923 2.88462 13.0769 3.07692 13.3654C3.07692 13.4615 3.07692 13.4615 3.07692 13.4615C2.78846 13.8462 2.5 14.2308 2.30769 14.6154L1.92308 15C1.63462 15.3846 1.63462 15.6731 2.01923 16.0577C2.59615 16.6346 3.17308 17.2115 3.75 17.7885C4.13462 18.1731 4.32692 18.1731 4.80769 17.8846H4.90385C5.38462 17.5 5.86538 17.2115 6.44231 16.8269C6.53846 16.8269 6.53846 16.8269 6.63462 16.8269C7.01923 17.0192 7.30769 17.1154 7.69231 17.3077C7.78846 17.3077 7.78846 17.3077 7.78846 17.4038C7.88462 17.9808 7.98077 18.6538 8.07692 19.3269C8.17308 19.8077 8.36539 20 8.84615 20H10.3846C10.4808 20 10.6731 20 10.7692 20C10.8654 20 11.0577 20 11.1538 20C11.6346 20 11.8269 19.8077 11.9231 19.4231L12.0192 19.0385C12.1154 18.5577 12.2115 17.9808 12.3077 17.5C12.3077 17.4038 12.3077 17.4038 12.4038 17.4038C12.6923 17.3077 13.0769 17.1154 13.4615 17.0192C13.5577 17.0192 13.5577 17.0192 13.6538 17.0192C14.0385 17.3077 14.3269 17.5 14.7115 17.7885L15.1923 18.1731C15.5769 18.4615 15.8654 18.4615 16.25 18.0769L17.8846 16.4423C18.2692 16.0577 18.2692 15.7692 17.9808 15.3846C17.5962 14.9038 17.2115 14.3269 16.8269 13.8462C16.8269 13.75 16.8269 13.75 16.8269 13.75C16.9231 13.5577 17.0192 13.3654 17.1154 13.1731C17.2115 12.9808 17.2115 12.7885 17.3077 12.6923L17.4038 12.5962C17.7885 12.5 18.2692 12.4038 18.6538 12.4038L19.3269 12.3077C19.8077 12.2115 20 12.0192 20 11.5385V8.65385C19.7115 8.17308 19.5192 7.98077 19.0385 7.88462ZM18.4615 10.6731C18.1731 10.6731 17.9808 10.7692 17.6923 10.7692C17.4038 10.8654 17.0192 10.8654 16.7308 10.9615C16.3462 11.0577 16.1538 11.25 15.9615 11.5385C15.7692 12.0192 15.5769 12.5 15.3846 12.9808C15.1923 13.3654 15.2885 13.6538 15.4808 13.9423C15.7692 14.3269 16.0577 14.8077 16.3462 15.1923L16.4423 15.3846C16.0577 15.7692 15.6731 16.1538 15.3846 16.4423C15.2885 16.3462 15.1923 16.25 15 16.1538C14.7115 15.9615 14.3269 15.6731 14.0385 15.3846C13.6538 15.0962 13.3654 15.0962 12.9808 15.2885C12.5962 15.4808 12.1154 15.6731 11.6346 15.8654C11.25 15.9615 11.0577 16.25 10.9615 16.6346C10.9615 16.9231 10.8654 17.2115 10.8654 17.5C10.7692 17.7885 10.7692 18.0769 10.6731 18.3654C10.1923 18.3654 9.71154 18.3654 9.13462 18.3654C9.13462 18.0769 9.03846 17.7885 8.94231 17.4038C8.84615 17.1154 8.84615 16.8269 8.75 16.5385C8.65385 16.1538 8.46154 16.0577 8.17308 15.9615C7.69231 15.7692 7.11539 15.5769 6.63462 15.2885C6.53846 15.1923 6.34615 15.1923 6.25 15.1923C6.05769 15.1923 5.96154 15.2885 5.76923 15.3846C5.38462 15.6731 4.90385 15.9615 4.51923 16.3462L4.32692 16.4423C3.94231 16.0577 3.65385 15.6731 3.26923 15.3846L3.94231 14.4231C4.03846 14.2308 4.23077 14.0385 4.32692 13.9423C4.61538 13.6538 4.42308 13.2692 4.42308 13.1731C4.23077 12.5962 3.94231 12.1154 3.75 11.5385C3.65385 11.3462 3.55769 11.0577 3.17308 11.0577C2.88462 11.0577 2.69231 10.9615 2.40385 10.9615C2.01923 10.8654 1.73077 10.8654 1.34615 10.7692C1.25 10.7692 1.25 10.7692 1.34615 10.7692C1.34615 10.2885 1.34615 9.80769 1.34615 9.32692C1.73077 9.23077 2.11538 9.23077 2.5 9.13462C2.78846 9.13462 2.98077 9.03846 3.26923 9.03846C3.65385 8.94231 3.75 8.75 3.84615 8.55769C4.03846 7.59615 4.23077 7.11539 4.42308 6.73077C4.51923 6.44231 4.51923 6.15385 4.32692 5.86538C4.13462 5.48077 3.84615 5.19231 3.65385 4.80769L3.26923 4.32692C3.65385 3.94231 4.03846 3.55769 4.32692 3.26923L4.61539 3.46154C5.09615 3.75 5.38462 4.03846 5.76923 4.32692C6.05769 4.51923 6.34615 4.61538 6.73077 4.42308C7.21154 4.13462 7.69231 3.94231 8.17308 3.75C8.55769 3.65385 8.75 3.36538 8.75 2.98077C8.75 2.69231 8.84615 2.30769 8.94231 2.01923C8.94231 1.73077 9.03846 1.53846 9.03846 1.25C9.51923 1.25 10.0962 1.25 10.5769 1.25C10.5769 1.53846 10.6731 1.73077 10.6731 2.01923C10.7692 2.30769 10.7692 2.69231 10.8654 2.98077C10.9615 3.36538 11.1538 3.55769 11.4423 3.65385C11.9231 3.84615 12.4038 4.03846 12.8846 4.23077C13.1731 4.42308 13.4615 4.32692 13.75 4.13462C14.1346 3.84615 14.5192 3.55769 15 3.26923H15.3846L15.6731 3.55769C15.9615 3.84615 16.1538 4.03846 16.4423 4.32692C16.3462 4.42308 16.25 4.51923 16.25 4.61539C16.0577 4.90385 15.7692 5.28846 15.5769 5.57692C15.2885 5.96154 15.2885 6.34615 15.4808 6.73077C15.6731 7.11539 15.8654 7.59615 15.9615 7.98077C16.0577 8.36539 16.3462 8.55769 16.7308 8.65385C17.0192 8.65385 17.3077 8.75 17.5962 8.75C17.8846 8.84615 18.1731 8.84615 18.4615 8.94231C18.3654 9.61539 18.3654 10.0962 18.4615 10.6731Z" fill="white"/>
<path d="M12.1957 7.41464C11.2201 6.63416 10.0494 6.43903 8.78111 6.82928C8.58599 6.92684 8.48842 7.0244 8.39086 7.21952C8.2933 7.41464 8.2933 7.5122 8.39086 7.70733C8.48842 8.00001 8.78111 8.19513 9.17135 8.09757C9.26891 8.09757 9.26891 8.09757 9.36647 8.00001H9.46403C10.3421 7.80489 11.025 8.00001 11.6104 8.68294C12.1957 9.36586 12.2933 10.0488 11.9031 10.8293C11.5128 11.6098 10.9274 12 10.0494 12.0976C9.36647 12.0976 8.87867 11.9024 8.39086 11.4146C8.00062 10.8293 7.8055 10.1463 8.00062 9.46342C8.09818 9.07318 7.90306 8.68294 7.51281 8.58537C7.31769 8.58537 7.12257 8.58537 7.02501 8.68294C6.92745 8.7805 6.73233 8.97562 6.73233 9.17074C6.73233 9.36586 6.63477 9.46342 6.63477 9.65854C6.63477 9.75611 6.63477 9.85367 6.63477 9.95123C6.63477 10.0488 6.63477 10.1464 6.63477 10.2439C6.63477 10.3415 6.63477 10.5366 6.73233 10.6342C7.02501 12.0976 8.2933 13.1707 9.85428 13.3659C9.95184 13.3659 10.0494 13.3659 10.147 13.3659C11.4153 13.3659 12.6835 12.5854 13.1714 11.3171C13.6592 9.95123 13.3665 8.39025 12.1957 7.41464Z" fill="white"/>
</svg>
