<svg width="20" height="18" viewBox="0 0 20 18" fill="none" xmlns="http://www.w3.org/2000/svg">
<path d="M1 6.21877C1.21295 5.81033 1.46607 5.65613 1.7875 5.73531C2.12902 5.82284 2.28571 6.08124 2.28571 6.57303C2.28571 10.199 2.28571 11.7695 2.28571 15.3954C2.28571 15.4788 2.28571 15.5621 2.28571 15.658C7.42857 15.658 12.5594 15.658 17.7022 15.658C17.7022 12.1154 17.7022 8.56864 17.7022 5.00104C17.6219 5.00104 17.5415 5.00104 17.4652 5.00104C15.2312 5.00104 12.9933 4.99687 10.7594 5.00521C10.5022 5.00521 10.2973 4.92185 10.1165 4.73014C9.3933 3.96744 8.66205 3.21308 7.92679 2.46288C7.85446 2.39203 7.73393 2.33785 7.63348 2.33785C5.69688 2.32951 3.76429 2.32535 1.82768 2.33785C1.43393 2.34202 1.1567 2.21282 1 1.83355C1 1.72102 1 1.61266 1 1.50013C1.09241 1.26257 1.25312 1.09586 1.48214 1C3.73214 1 5.98214 1 8.23214 1C8.38482 1.12086 8.54955 1.22923 8.68616 1.36676C9.38527 2.08362 10.0804 2.80464 10.7714 3.52983C10.8679 3.63402 10.9683 3.66736 11.1049 3.66736C13.4594 3.66319 15.8179 3.67153 18.1723 3.65903C18.5661 3.65903 18.8433 3.78406 19 4.16332C19 8.2769 19 12.3863 19 16.4999C18.9036 16.7333 18.7429 16.9 18.5179 17C12.8406 17 7.15937 17 1.48214 17C1.25714 16.9 1.09241 16.7374 1 16.4999C1 12.3905 1 10.3323 1 6.21877Z" fill="#E73728" stroke="white" stroke-width="0.3"/>
</svg>
