<svg width="20" height="13" viewBox="0 0 20 13" fill="none" xmlns="http://www.w3.org/2000/svg">
<path d="M0 6.5C0 6.22386 0.223858 6 0.5 6H11.5C11.7761 6 12 6.22386 12 6.5C12 6.77614 11.7761 7 11.5 7H0.5C0.223858 7 0 6.77614 0 6.5Z" fill="#919194"/>
<path d="M0 0.5C0 0.223858 0.223858 0 0.5 0H19.5C19.7761 0 20 0.223858 20 0.5C20 0.776142 19.7761 1 19.5 1H0.5C0.223857 1 0 0.776142 0 0.5Z" fill="#919194"/>
<path d="M0 12.5C0 12.2239 0.223858 12 0.5 12H19.5C19.7761 12 20 12.2239 20 12.5C20 12.7761 19.7761 13 19.5 13H0.5C0.223857 13 0 12.7761 0 12.5Z" fill="#919194"/>
</svg>
