<svg width="17" height="20" viewBox="0 0 17 20" fill="none" xmlns="http://www.w3.org/2000/svg">
<path d="M8.64979 1C9.0302 1.30791 9.04261 1.53146 8.69114 1.88999C8.16599 2.42567 7.63672 2.96136 7.11157 3.50126C7.06195 3.55187 7.01233 3.61092 6.92963 3.6995C7.1736 3.6995 7.38035 3.6995 7.58296 3.6995C8.48025 3.69107 9.36927 3.69528 10.2542 3.91462C13.2272 4.64854 15.5428 7.29743 15.9398 10.4145C16.4608 14.4975 13.5415 18.3316 9.54294 18.9222C6.0034 19.4452 2.74504 17.2771 1.50868 14.0841C1.17788 13.2279 1.00834 12.3463 1.00007 11.4268C0.995939 11.102 1.16547 10.9038 1.43425 10.8996C1.71129 10.8954 1.86428 11.0809 1.88082 11.4142C2.00487 14.3077 3.29912 16.4462 5.94137 17.5724C9.59256 19.1288 13.9053 17.1801 14.9101 13.0297C15.8364 9.19973 13.5828 5.47527 9.81999 4.73712C9.10877 4.59793 8.36861 4.63167 7.64085 4.59371C7.4217 4.58106 7.20254 4.59371 6.92963 4.59371C7.0082 4.68229 7.05368 4.73712 7.1033 4.78774C7.66153 5.36138 8.22388 5.93081 8.78211 6.50445C8.95164 6.67739 8.98885 6.87563 8.88548 7.05701C8.78211 7.2426 8.61671 7.32696 8.41823 7.28056C8.31899 7.25525 8.21561 7.19198 8.14118 7.11606C7.27284 6.24294 6.40863 5.36138 5.54855 4.48404C5.3418 4.27314 5.35007 4.01163 5.56096 3.79651C6.38382 2.96557 7.20254 2.13042 8.0254 1.29948C8.13291 1.19403 8.25283 1.09701 8.36447 1C8.45544 1 8.55468 1 8.64979 1Z" fill="#222327" stroke="#222327" stroke-width="0.5"/>
</svg>
