<svg width="20" height="20" viewBox="0 0 20 20" fill="none" xmlns="http://www.w3.org/2000/svg">
<path d="M15.2117 16.2177C13.2951 17.766 11.2327 18.4789 8.89021 18.4121C4.49654 18.2784 0.898669 15.193 0.147711 10.9046C-0.592039 6.68299 1.49271 2.67305 5.37079 0.857444C11.0646 -1.79357 17.7896 1.99359 18.3949 8.22014C18.4621 8.93301 18.4285 9.65703 18.3949 10.381C18.3612 11.0828 17.9914 11.4392 17.4646 11.3724C16.9266 11.3056 16.6688 10.8712 16.7472 10.2028C17.0387 7.60751 16.2317 5.37976 14.2814 3.65326C11.8716 1.51463 9.08075 1.05794 6.14417 2.33889C3.15154 3.64212 1.58238 6.04809 1.58238 9.31173C1.59359 12.5531 3.17396 14.9479 6.14417 16.24C9.06954 17.5098 11.838 16.9974 14.2814 14.9368C15.0324 14.3019 15.3238 14.2907 16.0299 14.9813C17.1844 16.0952 18.3276 17.2091 19.4821 18.323C19.5942 18.4232 19.7062 18.5234 19.7959 18.6348C20.0873 18.9913 20.0649 19.5371 19.7399 19.7933C19.37 20.0829 18.9665 20.0717 18.6302 19.7376C17.6327 18.7574 16.6464 17.7772 15.66 16.7858C15.5031 16.6187 15.3798 16.4294 15.2117 16.2177Z" fill="#919194"/>
</svg>
