<svg width="21" height="21" viewBox="0 0 21 21" fill="none" xmlns="http://www.w3.org/2000/svg">
<path d="M18.4299 5.7656C20.5178 9.40159 20.0539 14.0932 17.038 17.1427C14.0222 20.1923 9.2664 20.6614 5.78657 18.5502L4.97461 19.3712C9.03441 21.9516 14.3701 21.4824 17.966 17.8465C21.4458 14.3278 21.9098 8.81514 19.4739 4.70999L18.4299 5.7656ZM1.61078 16.2044C-0.941094 12.0993 -0.477116 6.70392 3.1187 3.06793C6.59853 -0.450765 12.0503 -0.919924 16.1101 1.54316L15.2981 2.36419C11.5863 0.370264 6.94651 0.839424 3.81467 3.88896C0.79882 7.05579 0.334843 11.7474 2.42274 15.3834L1.61078 16.2044Z" fill="#E73728"/>
</svg>
