<svg width="256" height="163" viewBox="0 0 256 163" fill="none" xmlns="http://www.w3.org/2000/svg">
<path d="M1 98.5112C2.14102 100.393 3.77812 100.987 5.96094 100.987C32.6012 100.938 59.1918 100.938 85.832 100.987C87.2211 100.987 88.8086 101.334 90.0488 101.978C103.592 109.01 117.136 116.092 130.629 123.223C131.274 123.57 131.87 123.917 133.06 124.61C131.621 124.659 130.778 124.759 129.935 124.759C96.6965 124.759 63.4582 124.759 30.2199 124.759C26.5488 124.759 25.259 125.551 25.1598 127.68C25.0605 130.107 26.6976 131.296 30.2199 131.296C68.3199 131.296 106.47 131.296 144.57 131.345C145.76 131.345 147.05 131.543 148.092 132.088C162.082 139.368 176.022 146.697 190.012 153.977C190.359 154.175 190.657 154.373 190.954 155.116C190.111 155.116 189.268 155.116 188.424 155.116C143.776 155.116 99.1273 155.116 54.4789 155.116C53.6355 155.116 52.8418 155.116 51.9984 155.215C50.1133 155.463 48.9723 156.503 49.0219 158.484C49.0715 160.415 50.1629 161.554 52.048 161.851C52.941 162 53.8836 161.95 54.7766 161.95C104.783 161.95 154.839 161.95 204.845 162C207.772 162 209.062 160.613 210.302 158.335C224.689 130.751 239.175 103.166 253.611 75.5324C254.008 74.7401 254.554 74.0468 255 73.2544C255 72.7591 255 72.2639 255 71.7687C253.909 70.7287 253.016 69.342 251.726 68.6487C209.359 46.4128 166.943 24.2264 124.527 2.03999C123.287 1.39619 121.7 1.04952 120.261 1.04952C98.1351 1 75.9598 1 53.834 1C51.7008 1 49.8156 1.34666 49.1707 3.72378C48.5258 6.29898 50.3117 8.13134 53.5859 8.13134C62.9125 8.18087 72.2887 8.13134 81.6152 8.13134C92.1324 8.13134 102.6 8.13134 113.117 8.13134C113.861 8.13134 114.605 8.18087 115.598 8.23039C115.201 9.07229 114.953 9.71609 114.655 10.3599C111.232 16.9465 107.71 23.4835 104.386 30.1197C103.493 31.9025 102.501 32.5463 100.467 32.5463C71.5445 32.4472 42.6223 32.4968 13.6504 32.4968C9.92969 32.4968 8.14374 33.6358 8.09413 35.9634C8.04453 38.39 9.92969 39.5786 13.7496 39.5786C41.382 39.5786 68.9648 39.5786 96.5973 39.5786C97.3414 39.5786 98.0855 39.5786 99.1273 39.5786C98.7801 40.4205 98.532 41.0643 98.2344 41.7081C94.8113 48.2947 91.3387 54.8317 87.9652 61.4679C87.2211 62.9536 86.3777 63.4488 84.7406 63.4488C66.6332 63.3993 48.5258 63.3993 30.4184 63.3993C29.575 63.3993 28.7316 63.3002 27.9379 63.4983C26.0031 63.8945 24.8125 65.1821 24.9117 67.163C25.0109 68.9954 26.1519 70.283 28.0371 70.4316C30.1703 70.5801 32.3531 70.5306 34.4863 70.5306C49.7164 70.5306 64.8969 70.5306 80.127 70.5306C80.9207 70.5306 81.7145 70.5801 82.9547 70.6792C81.1688 74.1458 79.5316 77.3153 77.8945 80.4848C76.6543 82.9114 75.4141 85.3381 74.0746 87.7152C72.9336 89.7456 72.1895 91.7761 74.025 94.1037C70.5027 94.1037 67.2781 94.1037 64.0535 94.1037C44.8051 94.1037 25.507 94.1037 6.25859 94.0541C4.1254 94.0541 2.38907 94.4998 1 96.0351C1 96.877 1 97.7188 1 98.5112ZM244.582 78.4048C231.188 104.058 218.091 129.067 204.994 154.175C163.52 132.534 122.345 111.09 81.0695 89.498C94.2656 64.2412 107.363 39.1824 120.658 13.777C121.303 15.1141 121.7 15.956 122.096 16.8474C133.011 41.7576 143.875 66.6678 154.739 91.578C156.377 95.3913 157.071 95.7379 161.189 94.9455C183.116 90.5875 205.043 86.1799 226.971 81.8219C232.577 80.7819 238.232 79.6924 244.582 78.4048ZM127.355 12.2913C127.504 12.1427 127.603 11.9942 127.752 11.8456C165.802 31.6549 203.853 51.4146 242.548 71.5211C214.717 77.1172 187.68 82.5152 160.544 88.0123C149.431 62.6564 138.368 37.4986 127.355 12.2913Z" fill="#E73728" stroke="white"/>
</svg>
