<svg width="14" height="14" viewBox="0 0 14 14" fill="none" xmlns="http://www.w3.org/2000/svg">
<path d="M13.3269 5.51923L12.9231 5.45192C12.5865 5.38462 12.3173 5.31731 11.9808 5.31731V5.25C11.9135 4.98077 11.7788 4.71154 11.7115 4.50962C11.6442 4.44231 11.7115 4.44231 11.7115 4.375C11.9808 4.03846 12.25 3.63462 12.4519 3.29808C12.6538 3.02885 12.6538 2.82692 12.3846 2.625C11.9808 2.22115 11.5769 1.81731 11.1731 1.41346C10.9712 1.21154 10.7692 1.14423 10.5 1.34615L10.0962 1.61538C9.82692 1.81731 9.625 1.95192 9.35577 2.15385H9.28846C9.15385 2.08654 9.01923 2.01923 8.88461 1.95192C8.75 1.88462 8.68269 1.88462 8.54808 1.81731C8.48077 1.81731 8.48077 1.81731 8.48077 1.75C8.41346 1.34615 8.34615 0.875 8.27885 0.403846C8.21154 0.134615 8.07692 0 7.74038 0H6.05769C5.72115 0 5.58654 0.134615 5.51923 0.403846L5.45192 0.875C5.38462 1.21154 5.38462 1.48077 5.31731 1.81731C5.31731 1.81731 5.31731 1.88462 5.25 1.88462C5.11538 1.88462 5.04808 1.95192 4.91346 2.01923C4.77885 2.01923 4.64423 2.08654 4.50962 2.15385C4.44231 2.15385 4.44231 2.15385 4.44231 2.15385C4.03846 1.88462 3.70192 1.61538 3.29808 1.34615C3.02885 1.14423 2.82692 1.21154 2.625 1.41346C2.22115 1.81731 1.81731 2.22115 1.41346 2.625C1.21154 2.82692 1.21154 3.02885 1.41346 3.29808C1.61538 3.70192 1.88462 4.03846 2.15385 4.375C2.15385 4.44231 2.22115 4.44231 2.15385 4.50962C2.01923 4.71154 1.95192 4.98077 1.81731 5.25C1.81731 5.31731 1.81731 5.31731 1.75 5.31731C1.34615 5.38462 0.942308 5.45192 0.538462 5.51923H0.403846C0.134615 5.58654 0 5.72115 0 6.05769C0 6.66346 0 7.20192 0 7.80769C0 8.14423 0.134615 8.27885 0.471154 8.34615H0.673077C1.00962 8.41346 1.41346 8.48077 1.75 8.54808C1.81731 8.54808 1.81731 8.54808 1.81731 8.61539C1.88462 8.88462 2.01923 9.15385 2.15385 9.35577C2.15385 9.42308 2.15385 9.42308 2.15385 9.42308C1.95192 9.69231 1.75 9.96154 1.61538 10.2308L1.34615 10.5C1.14423 10.7692 1.14423 10.9712 1.41346 11.2404C1.81731 11.6442 2.22115 12.0481 2.625 12.4519C2.89423 12.7212 3.02885 12.7212 3.36538 12.5192H3.43269C3.76923 12.25 4.10577 12.0481 4.50962 11.7788C4.57692 11.7788 4.57692 11.7788 4.64423 11.7788C4.91346 11.9135 5.11538 11.9808 5.38462 12.1154C5.45192 12.1154 5.45192 12.1154 5.45192 12.1827C5.51923 12.5865 5.58654 13.0577 5.65385 13.5288C5.72115 13.8654 5.85577 14 6.19231 14H7.26923C7.33654 14 7.47115 14 7.53846 14C7.60577 14 7.74039 14 7.80769 14C8.14423 14 8.27885 13.8654 8.34615 13.5962L8.41346 13.3269C8.48077 12.9904 8.54808 12.5865 8.61539 12.25C8.61539 12.1827 8.61538 12.1827 8.68269 12.1827C8.88461 12.1154 9.15385 11.9808 9.42308 11.9135C9.49039 11.9135 9.49038 11.9135 9.55769 11.9135C9.82692 12.1154 10.0288 12.25 10.2981 12.4519L10.6346 12.7212C10.9038 12.9231 11.1058 12.9231 11.375 12.6538L12.5192 11.5096C12.7885 11.2404 12.7885 11.0385 12.5865 10.7692C12.3173 10.4327 12.0481 10.0288 11.7788 9.69231C11.7788 9.625 11.7788 9.625 11.7788 9.625C11.8462 9.49039 11.9135 9.35577 11.9808 9.22115C12.0481 9.08654 12.0481 8.95192 12.1154 8.88461L12.1827 8.81731C12.4519 8.75 12.7885 8.68269 13.0577 8.68269L13.5288 8.61539C13.8654 8.54808 14 8.41346 14 8.07692V6.05769C13.7981 5.72115 13.6635 5.58654 13.3269 5.51923ZM12.9231 7.47115C12.7212 7.47115 12.5865 7.53846 12.3846 7.53846C12.1827 7.60577 11.9135 7.60577 11.7115 7.67308C11.4423 7.74038 11.3077 7.875 11.1731 8.07692C11.0385 8.41346 10.9038 8.75 10.7692 9.08654C10.6346 9.35577 10.7019 9.55769 10.8365 9.75962C11.0385 10.0288 11.2404 10.3654 11.4423 10.6346L11.5096 10.7692C11.2404 11.0385 10.9712 11.3077 10.7692 11.5096C10.7019 11.4423 10.6346 11.375 10.5 11.3077C10.2981 11.1731 10.0288 10.9712 9.82692 10.7692C9.55769 10.5673 9.35577 10.5673 9.08654 10.7019C8.81731 10.8365 8.48077 10.9712 8.14423 11.1058C7.875 11.1731 7.74038 11.375 7.67308 11.6442C7.67308 11.8462 7.60577 12.0481 7.60577 12.25C7.53846 12.4519 7.53846 12.6538 7.47115 12.8558C7.13462 12.8558 6.79808 12.8558 6.39423 12.8558C6.39423 12.6538 6.32692 12.4519 6.25962 12.1827C6.19231 11.9808 6.19231 11.7788 6.125 11.5769C6.05769 11.3077 5.92308 11.2404 5.72115 11.1731C5.38462 11.0385 4.98077 10.9038 4.64423 10.7019C4.57692 10.6346 4.44231 10.6346 4.375 10.6346C4.24038 10.6346 4.17308 10.7019 4.03846 10.7692C3.76923 10.9712 3.43269 11.1731 3.16346 11.4423L3.02885 11.5096C2.75962 11.2404 2.55769 10.9712 2.28846 10.7692L2.75962 10.0962C2.82692 9.96154 2.96154 9.82692 3.02885 9.75962C3.23077 9.55769 3.09615 9.28846 3.09615 9.22115C2.96154 8.81731 2.75962 8.48077 2.625 8.07692C2.55769 7.94231 2.49038 7.74038 2.22115 7.74038C2.01923 7.74038 1.88462 7.67308 1.68269 7.67308C1.41346 7.60577 1.21154 7.60577 0.942308 7.53846C0.875 7.53846 0.875 7.53846 0.942308 7.53846C0.942308 7.20192 0.942308 6.86538 0.942308 6.52885C1.21154 6.46154 1.48077 6.46154 1.75 6.39423C1.95192 6.39423 2.08654 6.32692 2.28846 6.32692C2.55769 6.25961 2.625 6.125 2.69231 5.99038C2.82692 5.31731 2.96154 4.98077 3.09615 4.71154C3.16346 4.50962 3.16346 4.30769 3.02885 4.10577C2.89423 3.83654 2.69231 3.63462 2.55769 3.36538L2.28846 3.02885C2.55769 2.75962 2.82692 2.49038 3.02885 2.28846L3.23077 2.42308C3.56731 2.625 3.76923 2.82692 4.03846 3.02885C4.24038 3.16346 4.44231 3.23077 4.71154 3.09615C5.04808 2.89423 5.38462 2.75962 5.72115 2.625C5.99038 2.55769 6.125 2.35577 6.125 2.08654C6.125 1.88462 6.19231 1.61538 6.25962 1.41346C6.25962 1.21154 6.32692 1.07692 6.32692 0.875C6.66346 0.875 7.06731 0.875 7.40385 0.875C7.40385 1.07692 7.47115 1.21154 7.47115 1.41346C7.53846 1.61538 7.53846 1.88462 7.60577 2.08654C7.67308 2.35577 7.80769 2.49038 8.00961 2.55769C8.34615 2.69231 8.68269 2.82692 9.01923 2.96154C9.22115 3.09615 9.42308 3.02885 9.625 2.89423C9.89423 2.69231 10.1635 2.49038 10.5 2.28846H10.7692L10.9712 2.49038C11.1731 2.69231 11.3077 2.82692 11.5096 3.02885C11.4423 3.09615 11.375 3.16346 11.375 3.23077C11.2404 3.43269 11.0385 3.70192 10.9038 3.90385C10.7019 4.17308 10.7019 4.44231 10.8365 4.71154C10.9712 4.98077 11.1058 5.31731 11.1731 5.58654C11.2404 5.85577 11.4423 5.99038 11.7115 6.05769C11.9135 6.05769 12.1154 6.125 12.3173 6.125C12.5192 6.19231 12.7212 6.19231 12.9231 6.25962C12.8558 6.73077 12.8558 7.06731 12.9231 7.47115Z" fill="#E73728"/>
<path d="M8.53526 5.19026C7.85233 4.64392 7.03282 4.50734 6.14502 4.78051C6.00843 4.8488 5.94014 4.91709 5.87185 5.05368C5.80355 5.19026 5.80355 5.25856 5.87185 5.39514C5.94014 5.60002 6.14502 5.7366 6.41819 5.66831C6.48648 5.66831 6.48648 5.66831 6.55477 5.60002H6.62307C7.2377 5.46343 7.71575 5.60002 8.12551 6.07807C8.53526 6.55612 8.60355 7.03417 8.33038 7.58051C8.05721 8.12685 7.64746 8.40002 7.03282 8.46831C6.55477 8.46831 6.21331 8.33173 5.87185 7.99026C5.59868 7.58051 5.46209 7.10246 5.59868 6.62441C5.66697 6.35124 5.53038 6.07807 5.25721 6.00977C5.12063 6.00977 4.98404 6.00977 4.91575 6.07807C4.84746 6.14636 4.71087 6.28295 4.71087 6.41953C4.71087 6.55612 4.64258 6.62441 4.64258 6.76099C4.64258 6.82929 4.64258 6.89758 4.64258 6.96587C4.64258 7.03416 4.64258 7.10246 4.64258 7.17075C4.64258 7.23904 4.64258 7.37563 4.71087 7.44392C4.91575 8.46831 5.80355 9.21953 6.89624 9.35612C6.96453 9.35612 7.03282 9.35612 7.10111 9.35612C7.98892 9.35612 8.87673 8.80977 9.21819 7.92197C9.55965 6.96587 9.35477 5.87319 8.53526 5.19026Z" fill="#E73728"/>
</svg>
