<svg width="16" height="20" viewBox="0 0 16 20" fill="none" xmlns="http://www.w3.org/2000/svg">
<path d="M5.52167 10.1715C4.61021 9.33997 3.98754 8.39095 3.57242 7.30635C2.66097 4.94735 3.2295 2.507 5.02533 1.07894C7.97627 -1.27102 12.2177 0.428183 12.8223 4.14293C13.2374 6.66463 12.2357 8.74344 10.3045 10.3703C9.56455 10.994 8.67115 11.2019 7.69652 11.2199C5.99093 11.2561 4.39363 11.699 3.01291 12.7384C2.09244 13.4343 1.45171 14.311 1.3344 15.5131C1.2622 16.3899 1.55098 17.0858 2.27292 17.5829C3.24755 18.2608 4.36656 18.4777 5.50362 18.5952C7.52506 18.8121 9.55553 18.8212 11.5679 18.4325C12.0643 18.3331 12.5606 18.1885 13.0299 17.9987C14.6903 17.3118 15.2138 15.9108 14.3655 14.3291C14.0677 13.7778 13.5623 13.3349 13.1472 12.8468C13.075 12.7565 12.9577 12.7022 12.8674 12.6209C12.5877 12.3678 12.5606 12.0605 12.7501 11.7713C12.9577 11.4549 13.2916 11.4097 13.5804 11.6086C15.0062 12.6118 15.9628 13.9134 15.9989 15.721C16.035 17.2756 15.2047 18.3241 13.8511 18.9929C12.5606 19.6256 11.1618 19.8425 9.74504 19.9329C7.58823 20.0685 5.44947 20.0413 3.34681 19.4448C3.00389 19.3454 2.66097 19.2189 2.33609 19.0652C0.161239 18.0529 -0.596802 15.9018 0.495137 13.7507C1.34342 12.0786 2.77828 11.1205 4.48387 10.4969C4.80875 10.3794 5.1246 10.289 5.52167 10.1715ZM8.01237 1.35009C6.29776 1.34105 4.7546 2.5793 4.47485 4.29659C4.14998 6.22175 4.87192 7.82153 6.21654 9.14113C7.33555 10.2348 8.59895 10.2167 9.74504 9.15017C10.855 8.12884 11.4597 6.82732 11.577 5.33599C11.7484 3.19391 10.088 1.36817 8.01237 1.35009Z" fill="#919194"/>
</svg>
