<svg width="192" height="181" viewBox="0 0 192 181" fill="none" xmlns="http://www.w3.org/2000/svg">
<path d="M0.799988 9.60001C0.799988 9.50001 0.699997 8.8 0.699997 8.7C0.699997 8.7 0.699997 8.7 0.699997 9C0.699997 9.4 0.699988 9.60001 0.799988 9.60001Z" fill="#E73728"/>
<path d="M2.2 20.9C2.2 20.8 1.99999 19.3 1.89999 19.3C1.89999 19.3 1.9 19.6 2 19.9C2.1 20.6 2.2 20.9 2.2 20.9Z" fill="#E73728"/>
<path d="M4.39999 32C4.39999 31.9 3.99999 30 3.89999 29.8C3.89999 29.8 3.89999 29.8 4.09999 30.7C4.19999 31.4 4.39999 31.9 4.39999 32Z" fill="#E73728"/>
<path d="M7.2 42.9C7.2 42.8 6.49999 40.3 6.39999 40C6.39999 40 6.4 40 6.7 41.1C7 42.2 7.2 42.8 7.2 42.9Z" fill="#E73728"/>
<path d="M10.7 53.6C10.7 53.5 9.6 50.5 9.5 50.2C9.5 50.3 9.59999 50.4 9.59999 50.5L10.6 53.3C10.6 53.4 10.6 53.5 10.7 53.6Z" fill="#E73728"/>
<path d="M14.7 63.7C14.5 63.2 13.7 61.4 13.3 60.3L14.7 63.7Z" fill="#E73728"/>
<path d="M1.29999 0.600006L1.2 0.300003V0.800003L1.29999 0.600006Z" fill="#E73728"/>
<path d="M2 12.1C2 12.1 2 11.9 2 11.6C2 11.4 1.89999 11.1 1.89999 11C1.89999 11 1.89999 11.3 1.89999 11.4C1.89999 11.8 2 12.1 2 12.1Z" fill="#E73728"/>
<path d="M3.5 23.3C3.6 23.3 3.3 21.5 3.2 21.5C3.2 21.5 3.1 21.6 3.2 22.2C3.3 22.9 3.4 23.3 3.5 23.3Z" fill="#E73728"/>
<path d="M5.7 34.4C5.9 34.3 5.29999 32 5.09999 31.9C5.09999 31.9 5 32.1 5.2 32.9C5.4 33.8 5.6 34.3 5.7 34.4Z" fill="#E73728"/>
<path d="M8.50001 45.2C8.70001 45.1 7.8 42.2 7.6 42.1C7.6 42.1 7.49999 42.2 7.79999 43.4C8.09999 44.5 8.40001 45.2 8.50001 45.2Z" fill="#E73728"/>
<path d="M11.9 55.9C12 55.9 12 55.9 11.9 55.9C12 55.5 10.7 52.2 10.5 52.1C10.5 52.1 10.4 52.3 10.9 53.6C11.5 55.1 11.9 55.8 11.9 55.9Z" fill="#E73728"/>
<path d="M16 66.2C16.1 66.2 16.1 66.2 16 66.2C16.1 65.8 14.3 62 14.2 61.9C14.2 62 14.2 62.1 14.8 63.6C15.5 65.3 16 66.2 16 66.2Z" fill="#E73728"/>
<path d="M20.7 76.3C20.8 76.3 20.8 76.3 20.7 76.3C20.6 75.8 18.7 72 18.4 71.6C18.4 71.8 18.7 72.4 19.2 73.5C20.2 75.5 20.7 76.3 20.7 76.3Z" fill="#E73728"/>
<path d="M26 86.1C26 85.8 23.3 81.2 23.1 81C23.1 81 23.1 81.1 24.2 83.1C25.3 85.1 26 86 26 86.1Z" fill="#E73728"/>
<path d="M31.9 95.5C31.8 95.1 28.7 90.4 28.4 90.1C28.4 90.2 28.4 90.3 29.7 92.3C31.1 94.4 31.8 95.5 31.9 95.5Z" fill="#E73728"/>
<path d="M38.3 104.6C38.1 104.2 34.6 99.4 34.2 99C34.3 99.2 34.4 99.3 34.5 99.5L36.5 102.3L37.9 104.2C38.1 104.3 38.2 104.5 38.3 104.6Z" fill="#E73728"/>
<path d="M45.2 113.2C44.5 112.3 40.8 107.9 40.6 107.5L45.2 113.2Z" fill="#E73728"/>
<path d="M52.3 121.2C51.6 120.5 48.6 117.2 47.7 116.1L52.3 121.2C52.4 121.2 52.4 121.2 52.3 121.2Z" fill="#E73728"/>
<path d="M59.1 127.9C58.2 127.1 57.1 126 56.2 125.1L59.1 127.9C59.1 128 59.1 128 59.1 127.9Z" fill="#E73728"/>
<path d="M3.2 2.7L3.09999 2.90001L3.2 3.2V2.7Z" fill="#E73728"/>
<path d="M4.00001 14.5C4.10001 14.6 4.1 13.8 3.9 13.4C3.9 13.3 3.79999 13.2 3.79999 13.3C3.79999 13.3 3.79999 13.5 3.79999 13.8C3.79999 14.2 3.90001 14.5 4.00001 14.5Z" fill="#E73728"/>
<path d="M5.39999 25.6C5.59999 25.7 5.49999 24.5 5.19999 23.9C5.09999 23.6 5 23.5 5 23.6C5 23.7 5 23.9 5 24.4C5.2 25.2 5.29999 25.6 5.39999 25.6Z" fill="#E73728"/>
<path d="M7.59999 36.5C7.79999 36.6 7.6 35.1 7.2 34.2C7.1 33.9 6.99999 33.8 6.89999 33.8C6.89999 33.8 6.8 34.1 7 34.9C7.2 36 7.49999 36.5 7.59999 36.5Z" fill="#E73728"/>
<path d="M10.4 47.3C10.7 47.4 10.3 45.7 9.79998 44.6C9.59998 44.1 9.39999 43.9 9.39999 44.1C9.39999 44.2 9.29999 44.4 9.59999 45.4C9.89999 46.6 10.3 47.2 10.4 47.3Z" fill="#E73728"/>
<path d="M13.8 57.8C14.1 57.9 13.5 55.9 12.8 54.6C12.5 54 12.3 53.8 12.3 54C12.3 54.1 12.3 54.4 12.7 55.6C13.2 57 13.7 57.8 13.8 57.8Z" fill="#E73728"/>
<path d="M17.9 68.1C18.3 67.8 16.4 63.7 15.9 63.6C15.8 63.7 16 64.4 16.4 65.5C17.2 67.2 17.8 68.1 17.9 68.1Z" fill="#E73728"/>
<path d="M22.6 78.1C22.9 77.8 20.6 73.2 20.1 73.1C20 73.2 20.3 74 20.9 75.2C21.8 77.1 22.4 78.1 22.6 78.1Z" fill="#E73728"/>
<path d="M27.9 87.8C28.2 87.4 25.3 82.4 24.8 82.4C24.7 82.5 25.1 83.4 25.8 84.7C26.9 86.8 27.7 87.8 27.9 87.8Z" fill="#E73728"/>
<path d="M33.7 97.2C33.9 96.7 30.4 91.4 29.9 91.4C29.8 91.6 30.3 92.4 31.2 93.9C32.6 96.1 33.5 97.1 33.7 97.2Z" fill="#E73728"/>
<path d="M40.1 106.2C40.2 105.7 36.1 100.2 35.7 100.2C35.7 100.4 36.2 101.3 37.3 102.8C38.9 105.1 39.9 106.1 40.1 106.2Z" fill="#E73728"/>
<path d="M46.9 114.7C47 114.7 47 114.7 46.9 114.7C46.6 113.8 42.5 108.9 41.8 108.6C41.9 108.9 42.6 109.8 43.7 111.2C45.7 113.7 46.8 114.7 46.9 114.7Z" fill="#E73728"/>
<path d="M54.3 122.9C54.4 122.4 49.1 117 48.7 116.8C48.9 117.1 49.6 118 50.9 119.4C52.6 121.4 54 122.7 54.3 122.9Z" fill="#E73728"/>
<path d="M62 130.5C62 130 56.5 125 56 124.8C56 124.9 56.8 125.8 58.4 127.3C60.3 129.1 61.7 130.4 62 130.5Z" fill="#E73728"/>
<path d="M70.1 137.6C70 137.1 64.4 132.5 64 132.4C64 132.4 64 132.6 66.5 134.7C68.4 136.3 69.9 137.5 70.1 137.6Z" fill="#E73728"/>
<path d="M78.5 144.2C78.2 143.8 72.8 139.7 72.4 139.6C72.4 139.6 72.5 139.8 74.9 141.7C76.9 143.1 78.4 144.1 78.5 144.2Z" fill="#E73728"/>
<path d="M87.4 150.3C87.1 150 82.2 146.7 81.5 146.3C81.6 146.4 81.6 146.5 83.6 147.8L85 148.8C85.9 149.3 87.2 150.2 87.4 150.3Z" fill="#E73728"/>
<path d="M96.6 155.9C96.3 155.6 91.5 152.8 91 152.6C91 152.6 91 152.6 91.7 153.1L95.8 155.5C96.1 155.6 96.3 155.8 96.6 155.9Z" fill="#E73728"/>
<path d="M106.1 161C105.7 160.8 101.4 158.5 100.9 158.3L101 158.4L104 159.9L105.9 160.9C106 160.9 106.1 161 106.1 161Z" fill="#E73728"/>
<path d="M116.1 165.6C114.5 164.9 112.9 164.2 111.4 163.5L116.1 165.6Z" fill="#E73728"/>
<path d="M126.1 169.6C125.2 169.3 122.7 168.3 122.2 168.2L126.1 169.6C126.2 169.6 126.2 169.6 126.1 169.6Z" fill="#E73728"/>
<path d="M135.8 172.8C135.3 172.6 134.8 172.5 134.3 172.3L135.9 172.8H135.8Z" fill="#E73728"/>
<path d="M5.79998 5.60001C5.89998 5.60001 5.89998 5.2 5.79998 5C5.79998 4.9 5.69999 4.9 5.69999 5C5.69999 5 5.69999 5.1 5.69999 5.2C5.69999 5.5 5.79998 5.60001 5.79998 5.60001Z" fill="#E73728"/>
<path d="M6.6 16.7C6.79999 16.8 6.7 15.8 6.5 15.4C6.4 15.3 6.29999 15.2 6.29999 15.4C6.29999 15.5 6.29999 15.8 6.29999 15.9C6.29999 16.4 6.5 16.7 6.6 16.7Z" fill="#E73728"/>
<path d="M7.99999 27.7C8.29999 27.8 8.09998 26.4 7.79998 25.7C7.69998 25.5 7.59999 25.5 7.49999 25.6C7.49999 25.7 7.49999 26 7.49999 26.4C7.69999 27.2 7.89999 27.7 7.99999 27.7Z" fill="#E73728"/>
<path d="M10.2 38.5C10.6 38.6 10.2 36.7 9.7 35.9C9.5 35.6 9.4 35.6 9.4 35.8C9.4 36 9.4 36.3 9.5 36.8C9.7 37.9 10 38.4 10.2 38.5Z" fill="#E73728"/>
<path d="M12.9 49.1C13.3 49.2 12.8 46.9 12.1 45.9C11.9 45.6 11.7 45.5 11.7 45.8C11.7 46 11.7 46.5 11.9 47.1C12.3 48.4 12.7 49 12.9 49.1Z" fill="#E73728"/>
<path d="M16.3 59.5C16.8 59.6 15.9 56.8 15.1 55.8C14.9 55.5 14.7 55.4 14.6 55.6C14.6 55.7 14.6 56.1 14.9 57.2C15.6 58.7 16.1 59.4 16.3 59.5Z" fill="#E73728"/>
<path d="M20.4 69.6C20.9 69.7 19.8 66.5 18.8 65.3C18.5 65 18.3 64.9 18.3 65.1C18.3 65.3 18.3 65.7 18.8 66.9C19.5 68.8 20.1 69.6 20.4 69.6Z" fill="#E73728"/>
<path d="M25 79.5C25.6 79.5 24 76.1 22.9 74.8C22.6 74.4 22.4 74.4 22.3 74.6C22.3 74.8 22.4 75.3 23 76.7C24 78.6 24.7 79.5 25 79.5Z" fill="#E73728"/>
<path d="M30.2 89.1C30.8 89.1 28.6 85 27.3 83.8C27.1 83.6 26.8 83.4 26.8 83.8C26.8 84 27 84.6 27.8 86.1C29 88.1 29.9 89.1 30.2 89.1Z" fill="#E73728"/>
<path d="M36 98.3C36.7 98.2 34 93.9 32.5 92.6C32.3 92.4 31.9 92.2 32 92.6C32 92.8 32.2 93.5 33.2 95.1C34.7 97.4 35.7 98.4 36 98.3Z" fill="#E73728"/>
<path d="M42.3 107.2C43 107.1 39.7 102.5 38.1 101.2C37.7 100.9 37.6 100.9 37.6 101.1C37.6 101.3 37.8 101.9 39.2 103.8C40.9 106.2 42.1 107.3 42.3 107.2Z" fill="#E73728"/>
<path d="M49.2 115.7C49.9 115.5 45.8 110.4 44.1 109.4C43.8 109.2 43.7 109.2 43.7 109.4C43.7 109.6 44 110.2 45.6 112.2C47.6 114.8 48.9 115.8 49.2 115.7Z" fill="#E73728"/>
<path d="M56.5 123.8C57.2 123.6 52.1 118 50.6 117.4C50.4 117.3 50.4 117.4 50.4 117.4C50.3 117.7 51.1 118.8 52.6 120.4C54.8 122.8 56.2 123.9 56.5 123.8Z" fill="#E73728"/>
<path d="M64.1 131.3C64.7 131.1 59.2 125.8 57.8 125.2C57.6 125.1 57.6 125.2 57.6 125.2C57.6 125.5 58.4 126.5 60 128.1C62.5 130.4 63.9 131.4 64.1 131.3Z" fill="#E73728"/>
<path d="M72 138.2C72.2 138 70.4 136.3 69.2 135.3C67.4 133.8 65.7 132.6 65.5 132.7C65.5 133 66.4 133.9 68 135.3C70.1 137.1 71.7 138.3 72 138.2Z" fill="#E73728"/>
<path d="M80.3 144.7C80.3 143.9 74.4 139.8 73.9 139.9C73.9 140.1 74.7 140.9 76.4 142.2C78.4 143.7 80 144.7 80.3 144.7Z" fill="#E73728"/>
<path d="M89 150.7C88.9 150 83.2 146.5 82.9 146.6C82.9 146.8 83.8 147.5 85.4 148.6C87.3 149.9 88.7 150.7 89 150.7Z" fill="#E73728"/>
<path d="M98 156.2C97.8 155.5 92.5 152.7 92.2 152.8C92.3 153 93.1 153.6 94.6 154.5C96.5 155.6 97.8 156.2 98 156.2Z" fill="#E73728"/>
<path d="M107.4 161.2C107.1 160.7 102.6 158.5 102 158.4C102.1 158.6 103 159.1 104.3 159.8C106 160.7 107.1 161.2 107.4 161.2Z" fill="#E73728"/>
<path d="M117.2 165.7C116.9 165.3 112.8 163.6 112.3 163.5C112.5 163.7 113.2 164 114.5 164.6C115.9 165.3 117 165.7 117.2 165.7Z" fill="#E73728"/>
<path d="M127.4 169.7C127.1 169.4 123.4 168.1 123.1 168.1C123.3 168.2 124 168.5 125.1 168.9C126.2 169.4 127.2 169.7 127.4 169.7Z" fill="#E73728"/>
<path d="M137.8 173.1C137.6 172.9 134.4 171.9 134.1 172C134.1 172.1 135.2 172.4 135.8 172.6C136.9 173 137.7 173.2 137.8 173.1Z" fill="#E73728"/>
<path d="M148.6 176C148.4 175.9 145.8 175.2 145.5 175.3C145.5 175.4 146.4 175.6 146.9 175.7C147.8 175.9 148.5 176 148.6 176Z" fill="#E73728"/>
<path d="M159.4 178.2C159.3 178.1 157.3 177.8 157.1 177.8C157.1 177.8 157.7 178 158.2 178.1C158.9 178.2 159.4 178.3 159.4 178.2Z" fill="#E73728"/>
<path d="M170.3 179.8L168.8 179.6C168.8 179.6 169.1 179.7 169.5 179.7C169.6 179.8 170.3 179.9 170.3 179.8Z" fill="#E73728"/>
<path d="M181.1 180.8C181.1 180.8 180.4 180.7 180.3 180.8C180.3 180.8 180.5 180.8 180.7 180.8C180.8 180.8 181 180.8 181.1 180.8Z" fill="#E73728"/>
<path d="M9 7.90001C9.1 7.90001 9.1 7.4 9 7.2C9 7.1 8.89999 7.1 8.79998 7.2C8.79998 7.3 8.79998 7.40001 8.79998 7.40001C8.89999 7.80001 9 7.90001 9 7.90001Z" fill="#E73728"/>
<path d="M9.79998 18.8C9.99998 18.9 9.99998 18 9.79998 17.6C9.69998 17.4 9.59999 17.4 9.49999 17.6C9.49999 17.7 9.49999 18 9.49999 18.1C9.49999 18.5 9.69998 18.8 9.79998 18.8Z" fill="#E73728"/>
<path d="M11.2 29.6C11.6 29.7 11.4 28.2 11 27.6C10.8 27.4 10.7 27.4 10.6 27.6C10.5 27.8 10.6 28.2 10.6 28.3C10.8 29.1 11.1 29.6 11.2 29.6Z" fill="#E73728"/>
<path d="M13.3 40.2C13.7 40.3 13.4 38.4 12.9 37.6C12.7 37.3 12.5 37.3 12.4 37.7C12.4 38 12.4 38.4 12.5 38.6C12.8 39.6 13.1 40.2 13.3 40.2Z" fill="#E73728"/>
<path d="M16.1 50.6C16.7 50.7 16.1 48.3 15.3 47.4C15 47 14.8 47.1 14.8 47.5C14.8 47.9 14.9 48.4 15 48.7C15.3 50 15.8 50.6 16.1 50.6Z" fill="#E73728"/>
<path d="M19.4 60.8C20 60.8 19.2 58.1 18.3 57C18 56.7 17.7 56.6 17.7 57C17.7 57.5 17.9 58.2 18 58.5C18.5 60.1 19.2 60.8 19.4 60.8Z" fill="#E73728"/>
<path d="M23.4 70.8C24.1 70.8 22.9 67.7 21.8 66.5C21.4 66.1 21.1 66.1 21.1 66.6C21.1 67.1 21.4 68 21.6 68.3C22.3 70 23.1 70.8 23.4 70.8Z" fill="#E73728"/>
<path d="M28 80.5C28.8 80.4 27 76.6 25.7 75.6C25.3 75.3 25.1 75.4 25.1 75.8C25.1 76.4 25.6 77.4 25.7 77.7C26.7 79.7 27.6 80.5 28 80.5Z" fill="#E73728"/>
<path d="M33.1 89.9C33.9 89.8 31.7 85.6 30.2 84.5C29.7 84.1 29.5 84.3 29.6 84.8C29.7 85.5 30.3 86.5 30.5 86.9C31.7 89.1 32.8 90 33.1 89.9Z" fill="#E73728"/>
<path d="M38.8 99C39.7 98.8 36.9 94.3 35.3 93.2C34.8 92.8 34.5 93 34.7 93.6C34.9 94.4 35.6 95.5 35.8 95.8C37.3 98.2 38.4 99.1 38.8 99Z" fill="#E73728"/>
<path d="M45 107.8C45.9 107.6 42.6 102.8 40.7 101.6C40.2 101.3 39.9 101.4 40 101.9C40.1 102.4 40.6 103.3 41.4 104.5C43.4 107 44.7 107.9 45 107.8Z" fill="#E73728"/>
<path d="M51.8 116.2C52.8 115.8 48.5 110.5 46.6 109.7C46.1 109.5 45.9 109.7 46.2 110.3C46.6 111.2 47.6 112.4 47.9 112.9C50 115.4 51.4 116.3 51.8 116.2Z" fill="#E73728"/>
<path d="M59 124.2C59.9 123.8 55.1 118.3 53 117.5C52.7 117.4 52.3 117.3 52.6 118C52.8 118.6 53.5 119.6 54.7 120.8C57.1 123.4 58.7 124.3 59 124.2Z" fill="#E73728"/>
<path d="M66.6 131.5C67.5 131 61.7 125.4 60 125.1C59.6 125 59.6 125.4 60 126.1C60.6 127 61.6 128 62 128.4C64.6 130.9 66.3 131.7 66.6 131.5Z" fill="#E73728"/>
<path d="M74.3 138.3C75 137.8 69.3 132.8 67.7 132.6C67.3 132.5 67.4 132.9 67.8 133.5C68.4 134.3 69.4 135.2 69.9 135.6C72.5 137.7 74 138.5 74.3 138.3Z" fill="#E73728"/>
<path d="M82.4 144.6C83 144.1 77.4 139.8 76 139.7C75.8 139.7 75.6 139.8 76.1 140.3C76.7 141 77.9 142 78.3 142.3C80.8 144.2 82.2 144.8 82.4 144.6Z" fill="#E73728"/>
<path d="M90.9 150.4C91.4 149.9 86.1 146.3 84.8 146.3C84.6 146.3 84.5 146.4 85 146.9C85.6 147.5 86.7 148.3 87.1 148.6C89.4 150.1 90.7 150.6 90.9 150.4Z" fill="#E73728"/>
<path d="M99.8 155.8C100.1 155.3 94.7 152.1 94 152.4C93.7 152.5 94.4 153.1 96.3 154.3C98.5 155.6 99.6 156 99.8 155.8Z" fill="#E73728"/>
<path d="M109 160.7C109.2 160.3 104.2 157.7 103.6 158C103.4 158.1 104 158.6 105.8 159.6C107.9 160.6 108.9 160.9 109 160.7Z" fill="#E73728"/>
<path d="M118.6 165.2C118.7 164.8 114.1 162.8 113.7 163C113.5 163.1 114.1 163.5 115.8 164.3C117.7 165.1 118.6 165.3 118.6 165.2Z" fill="#E73728"/>
<path d="M128.6 169.1C128.5 168.7 124.4 167.2 124.2 167.5C124.2 167.7 125 168 126.1 168.5C127.4 169 128.5 169.3 128.6 169.1Z" fill="#E73728"/>
<path d="M138.8 172.5C138.8 172.2 135.2 171.1 135 171.4C135 171.5 135.7 171.8 136.7 172.1C138.1 172.5 138.8 172.6 138.8 172.5Z" fill="#E73728"/>
<path d="M149.4 175.3C149.4 175.1 146.4 174.4 146.3 174.6C146.2 174.7 146.7 174.9 147.7 175.1C148.8 175.3 149.4 175.4 149.4 175.3Z" fill="#E73728"/>
<path d="M160.1 177.5C160.1 177.4 158 176.9 157.8 177.1C157.8 177.2 158.2 177.3 158.9 177.4C159.5 177.5 160 177.6 160.1 177.5Z" fill="#E73728"/>
<path d="M170.7 179C170.7 178.9 169.2 178.7 169.1 178.8C169.1 178.8 169.4 178.9 169.9 179C170.3 179.1 170.7 179.1 170.7 179Z" fill="#E73728"/>
<path d="M181.3 180C181.3 180 180.5 179.9 180.4 180C180.4 180 180.6 180.1 180.8 180.1C181.1 180 181.3 180 181.3 180Z" fill="#E73728"/>
<path d="M12.9 10.1C13 10.1 13.1 9.70001 12.9 9.40001C12.8 9.30001 12.7 9.30001 12.7 9.40001C12.7 9.50001 12.7 9.50001 12.7 9.60001C12.7 9.90001 12.8 10.1 12.9 10.1Z" fill="#E73728"/>
<path d="M13.7 20.7C14 20.8 13.9 19.9 13.7 19.5C13.6 19.3 13.4 19.3 13.4 19.5C13.4 19.6 13.4 19.8 13.4 19.9C13.3 20.5 13.5 20.7 13.7 20.7Z" fill="#E73728"/>
<path d="M15.1 31.3C15.5 31.4 15.4 29.9 14.9 29.4C14.7 29.1 14.5 29.2 14.4 29.6C14.4 29.8 14.4 30 14.4 30.2C14.6 30.9 14.9 31.3 15.1 31.3Z" fill="#E73728"/>
<path d="M17.1 41.7C17.6 41.7 17.3 39.9 16.7 39.2C16.4 38.9 16.2 39 16.1 39.4C16.1 39.7 16.1 40 16.2 40.1C16.5 41.1 16.9 41.6 17.1 41.7Z" fill="#E73728"/>
<path d="M19.8 51.9C20.5 51.9 19.9 49.6 19.1 48.7C18.7 48.3 18.4 48.4 18.4 49.1C18.4 49.5 18.5 49.8 18.5 50C19 51.3 19.5 51.9 19.8 51.9Z" fill="#E73728"/>
<path d="M23.1 61.9C23.9 61.9 23.1 59.2 22 58.2C21.5 57.8 21.2 57.9 21.3 58.5C21.3 59 21.5 59.5 21.6 59.7C22.1 61.2 22.8 61.9 23.1 61.9Z" fill="#E73728"/>
<path d="M27 71.6C27.9 71.5 26.7 68.4 25.5 67.4C25 66.9 24.6 67.1 24.7 67.8C24.7 68.3 25 68.9 25.1 69.2C25.8 70.9 26.6 71.7 27 71.6Z" fill="#E73728"/>
<path d="M31.4 81.1C32.3 81 30.8 77.5 29.4 76.3C28.8 75.8 28.4 76 28.5 76.8C28.6 77.4 28.9 78.1 29 78.4C30.1 80.4 31.1 81.2 31.4 81.1Z" fill="#E73728"/>
<path d="M36.5 90.4C37.5 90.2 35.4 86.1 33.7 85.1C33.1 84.7 32.8 85 33 85.9C33.2 86.6 33.6 87.3 33.7 87.6C34.9 89.6 36.1 90.5 36.5 90.4Z" fill="#E73728"/>
<path d="M42.1 99.3C43.2 99 40.5 94.5 38.7 93.6C38 93.2 37.7 93.6 38 94.5C38.2 95.2 38.7 96 38.9 96.4C40.3 98.6 41.6 99.4 42.1 99.3Z" fill="#E73728"/>
<path d="M48.2 107.9C49.3 107.5 46.1 102.8 44.1 101.8C43.3 101.4 43.1 101.8 43.4 102.8C43.7 103.6 44.3 104.4 44.5 104.8C46.3 107.2 47.7 108 48.2 107.9Z" fill="#E73728"/>
<path d="M54.8 116.1C55.9 115.6 52.2 110.7 49.9 109.8C49.1 109.5 48.9 109.8 49.2 110.7C49.5 111.6 50.4 112.6 50.7 113C52.8 115.4 54.3 116.3 54.8 116.1Z" fill="#E73728"/>
<path d="M61.9 123.9C63.1 123.2 58.3 117.9 56 117.3C55.2 117.1 55.1 117.7 55.9 118.9C56.4 119.7 57 120.4 57.4 120.8C59.7 123.3 61.4 124.1 61.9 123.9Z" fill="#E73728"/>
<path d="M69.3 131.1C70.4 130.4 65.2 125.2 63 124.8C62.3 124.7 62.2 125.2 62.8 126.1C63.4 127 64.2 127.8 64.6 128.2C67.1 130.7 68.9 131.4 69.3 131.1Z" fill="#E73728"/>
<path d="M76.8 137.7C77.7 137 72.6 132.4 70.5 132.1C69.8 132 69.8 132.5 70.5 133.4C71.1 134.2 72 135 72.3 135.3C74.9 137.4 76.5 138 76.8 137.7Z" fill="#E73728"/>
<path d="M84.7 143.8C85.4 143 80 138.9 78.5 139C77.8 139.1 78.4 140 79.9 141.3C80.1 141.5 80.3 141.6 80.5 141.8C83 143.7 84.5 144.1 84.7 143.8Z" fill="#E73728"/>
<path d="M93 149.6C93.6 148.9 88.4 145.4 87 145.6C86.4 145.7 87.1 146.5 88.5 147.6C88.7 147.7 88.9 147.9 89.1 148C91.5 149.5 92.8 149.8 93 149.6Z" fill="#E73728"/>
<path d="M101.7 154.9C102.2 154.2 97.2 151.3 96.1 151.5C95.6 151.6 96.2 152.4 97.6 153.2C97.8 153.3 98 153.4 98.2 153.6C100.4 154.9 101.6 155.1 101.7 154.9Z" fill="#E73728"/>
<path d="M110.8 159.7C111.1 159.1 106.6 156.7 105.6 157C105.2 157.1 105.8 157.8 107.1 158.5C107.3 158.6 107.5 158.7 107.6 158.8C109.6 159.8 110.6 159.9 110.8 159.7Z" fill="#E73728"/>
<path d="M120.2 164C120.4 163.5 116.2 161.6 115.4 161.9C115 162 115.8 162.6 117.1 163.2C117.2 163.2 117.3 163.3 117.3 163.3C119.2 164.1 120.1 164.2 120.2 164Z" fill="#E73728"/>
<path d="M129.9 167.9C130 167.4 126.3 166 125.6 166.3C125.3 166.4 125.9 166.9 127.4 167.5C129.1 168 129.9 168 129.9 167.9Z" fill="#E73728"/>
<path d="M139.9 171.2C139.9 170.8 136.5 169.7 136.2 170.1C136.1 170.2 136.5 170.5 137.8 170.9C139.3 171.3 139.9 171.3 139.9 171.2Z" fill="#E73728"/>
<path d="M150.3 173.9C150.3 173.5 147.4 172.9 147.2 173.2C147.2 173.3 147.4 173.5 148.6 173.8C149.7 174.1 150.3 174.1 150.3 173.9Z" fill="#E73728"/>
<path d="M160.7 176.1C160.7 175.8 158.5 175.5 158.4 175.7C158.4 175.8 158.6 175.9 159.5 176.1C160.4 176.2 160.7 176.2 160.7 176.1Z" fill="#E73728"/>
<path d="M171.2 177.6C171.1 177.4 169.7 177.3 169.6 177.4C169.6 177.4 169.8 177.5 170.3 177.6C171 177.7 171.2 177.7 171.2 177.6Z" fill="#E73728"/>
<path d="M181.6 178.5C181.6 178.4 180.8 178.4 180.8 178.5C180.8 178.5 180.9 178.6 181.2 178.6C181.4 178.6 181.6 178.6 181.6 178.5Z" fill="#E73728"/>
<path d="M191.9 178.8H191.8L191.9 178.9V178.8Z" fill="#E73728"/>
<path d="M17.4 12.1C17.5 12.1 17.6 11.7 17.4 11.5C17.3 11.4 17.2 11.4 17.2 11.6V11.7C17.2 12 17.3 12.1 17.4 12.1Z" fill="#E73728"/>
<path d="M18.1 22.5C18.4 22.5 18.4 21.7 18.1 21.3C17.9 21.1 17.7 21.1 17.7 21.4C17.7 21.5 17.7 21.6 17.7 21.7C17.7 22.3 18 22.5 18.1 22.5Z" fill="#E73728"/>
<path d="M19.5 32.8C19.9 32.8 19.9 31.6 19.4 31C19.1 30.7 18.9 30.8 18.8 31.2C18.8 31.4 18.8 31.6 18.8 31.7C18.9 32.4 19.3 32.8 19.5 32.8Z" fill="#E73728"/>
<path d="M21.5 42.9C22.1 42.9 21.9 41.3 21.2 40.5C20.8 40.1 20.5 40.2 20.5 40.8C20.5 41 20.5 41.3 20.6 41.4C20.7 42.5 21.2 42.9 21.5 42.9Z" fill="#E73728"/>
<path d="M24.1 52.9C24.8 52.9 24.4 50.8 23.5 49.9C23 49.4 22.7 49.5 22.6 50.2C22.6 50.5 22.7 50.9 22.7 51.1C23.2 52.4 23.8 52.9 24.1 52.9Z" fill="#E73728"/>
<path d="M27.3 62.6C28.2 62.5 27.4 60 26.3 59.1C25.7 58.7 25.4 58.9 25.4 59.7C25.4 60.1 25.5 60.4 25.6 60.6C26.2 62 26.9 62.6 27.3 62.6Z" fill="#E73728"/>
<path d="M31.1 72.1C32.1 72 31 69 29.7 68C29 67.5 28.6 67.9 28.8 68.8C28.9 69.2 29 69.6 29.1 69.8C29.8 71.5 30.7 72.2 31.1 72.1Z" fill="#E73728"/>
<path d="M35.4 81.4C36.5 81.2 35.1 77.9 33.5 76.8C32.7 76.3 32.3 76.7 32.5 77.8C32.6 78.3 32.8 78.7 32.9 78.9C33.9 80.8 35 81.5 35.4 81.4Z" fill="#E73728"/>
<path d="M40.3 90.4C41.4 90.1 39.6 86.4 37.9 85.4C37.1 84.9 36.6 85.3 36.9 86.3C37 86.9 37.3 87.4 37.5 87.8C38.7 89.8 39.9 90.5 40.3 90.4Z" fill="#E73728"/>
<path d="M45.8 99.1C47 98.7 44.8 94.8 42.8 93.7C41.9 93.2 41.4 93.7 41.8 94.8C42 95.4 42.4 96 42.6 96.4C43.9 98.5 45.3 99.2 45.8 99.1Z" fill="#E73728"/>
<path d="M51.7 107.4C53 106.8 50 102.4 47.8 101.6C46.8 101.2 46.6 101.9 47.1 103.2C47.4 103.8 47.7 104.3 48 104.6C49.7 106.9 51.2 107.6 51.7 107.4Z" fill="#E73728"/>
<path d="M58.1 115.4C59.4 114.7 55.9 110.2 53.6 109.4C52.6 109.1 52.3 109.8 53 111.2C53.3 111.8 53.8 112.4 54 112.7C56 115 57.6 115.6 58.1 115.4Z" fill="#E73728"/>
<path d="M65 122.9C66.2 122.1 62.3 117.5 59.9 116.9C58.8 116.6 58.6 117.4 59.5 118.8C59.9 119.4 60.4 120 60.7 120.3C62.8 122.6 64.5 123.2 65 122.9Z" fill="#E73728"/>
<path d="M72.1 129.9C73.3 129 68.6 124.3 66.3 124.1C65.3 124 65.4 125.1 66.7 126.6C67 127 67.3 127.3 67.5 127.5C70 129.8 71.7 130.3 72.1 129.9Z" fill="#E73728"/>
<path d="M79.6 136.4C80.6 135.5 75.9 131.2 73.8 131.2C72.8 131.2 73.1 132.2 74.4 133.6C74.7 133.9 75 134.2 75.3 134.4C77.5 136.4 79.2 136.8 79.6 136.4Z" fill="#E73728"/>
<path d="M87.3 142.5C88.2 141.6 83.5 137.9 81.5 138C80.6 138 81 139 82.3 140.2C82.6 140.5 82.9 140.7 83.1 140.9C85.5 142.5 87 142.8 87.3 142.5Z" fill="#E73728"/>
<path d="M95.5 148.1C96.2 147.2 91.7 144.1 89.9 144.2C89.1 144.3 89.5 145.1 90.8 146.1C91.1 146.3 91.4 146.6 91.6 146.7C93.8 148.2 95.2 148.4 95.5 148.1Z" fill="#E73728"/>
<path d="M103.9 153.3C104.4 152.5 100.1 149.9 98.7 150.1C98 150.2 98.4 150.9 99.7 151.8C100 152 100.2 152.2 100.5 152.3C102.5 153.5 103.7 153.6 103.9 153.3Z" fill="#E73728"/>
<path d="M112.7 158C113.1 157.2 108.8 155 107.7 155.4C107.3 155.6 107.7 156.3 109.5 157.3C111.5 158.2 112.6 158.3 112.7 158Z" fill="#E73728"/>
<path d="M121.9 162.2C122.2 161.5 118.2 159.7 117.4 160.2C117 160.4 117.5 161 119.1 161.7C120.9 162.5 121.8 162.5 121.9 162.2Z" fill="#E73728"/>
<path d="M131.4 166C131.6 165.4 128 164.1 127.4 164.5C127.1 164.7 127.6 165.2 129 165.7C130.6 166.3 131.3 166.2 131.4 166Z" fill="#E73728"/>
<path d="M141.2 169.2C141.3 168.7 138.2 167.7 137.7 168.1C137.5 168.3 137.9 168.7 139.2 169.1C140.5 169.5 141.2 169.4 141.2 169.2Z" fill="#E73728"/>
<path d="M151.3 171.9C151.3 171.5 148.8 170.9 148.4 171.2C148.3 171.3 148.6 171.6 149.7 171.9C150.8 172.2 151.3 172.1 151.3 171.9Z" fill="#E73728"/>
<path d="M161.5 174C161.5 173.7 159.5 173.3 159.3 173.6C159.2 173.7 159.5 173.9 160.3 174.1C161.2 174.2 161.5 174.1 161.5 174Z" fill="#E73728"/>
<path d="M171.7 175.5C171.7 175.3 170.4 175.1 170.3 175.3C170.2 175.4 170.5 175.5 171 175.6C171.5 175.7 171.7 175.6 171.7 175.5Z" fill="#E73728"/>
<path d="M181.8 176.4C181.8 176.3 181.1 176.3 181.1 176.4C181.1 176.4 181.2 176.5 181.5 176.5C181.7 176.5 181.8 176.4 181.8 176.4Z" fill="#E73728"/>
<path d="M22.5 13.9L22.4 13.6L22.2 13.8L22.4 14.1L22.5 13.9Z" fill="#E73728"/>
<path d="M23.1 24.2C23.4 24.2 23.4 23.5 23.1 23.1C22.9 22.9 22.7 23 22.7 23.3C22.7 23.4 22.7 23.4 22.7 23.5C22.8 23.9 23 24.2 23.1 24.2Z" fill="#E73728"/>
<path d="M24.4 34.1C24.9 34.1 24.8 33 24.3 32.5C24 32.2 23.7 32.3 23.7 32.8C23.7 32.9 23.7 33 23.7 33.1C23.9 33.8 24.2 34.1 24.4 34.1Z" fill="#E73728"/>
<path d="M26.4 43.9C27 43.9 26.8 42.4 26.2 41.7C25.8 41.3 25.4 41.5 25.4 42.1C25.4 42.3 25.4 42.4 25.5 42.6C25.6 43.5 26.1 43.9 26.4 43.9Z" fill="#E73728"/>
<path d="M28.9 53.6C29.7 53.6 29.3 51.7 28.4 50.9C27.8 50.4 27.4 50.7 27.4 51.5C27.4 51.7 27.5 51.9 27.5 52.1C27.9 53.1 28.6 53.6 28.9 53.6Z" fill="#E73728"/>
<path d="M32 63.1C32.9 63 32.4 60.7 31.2 59.8C30.5 59.2 30 59.6 30.1 60.5C30.1 60.8 30.2 61 30.3 61.2C30.8 62.6 31.6 63.1 32 63.1Z" fill="#E73728"/>
<path d="M35.7 72.3C36.7 72.1 35.9 69.6 34.6 68.6C33.8 68 33.3 68.4 33.5 69.5C33.6 69.8 33.6 70 33.7 70.3C34.3 71.8 35.2 72.4 35.7 72.3Z" fill="#E73728"/>
<path d="M39.9 81.3C41 81 39.9 78.1 38.3 77.1C37.4 76.5 36.8 76.9 37 78C37.1 78.4 37.3 78.8 37.4 79.1C38.3 80.8 39.4 81.4 39.9 81.3Z" fill="#E73728"/>
<path d="M44.7 90C45.9 89.6 44.3 86.2 42.5 85.3C41.5 84.8 41 85.4 41.5 86.7C41.6 87.1 41.8 87.4 41.9 87.7C42.9 89.6 44.1 90.2 44.7 90Z" fill="#E73728"/>
<path d="M49.9 98.4C51.2 97.9 49.2 94.3 47.2 93.4C46.1 92.9 45.6 93.6 46.2 95C46.4 95.4 46.5 95.7 46.7 96C48 98 49.4 98.6 49.9 98.4Z" fill="#E73728"/>
<path d="M55.6 106.5C56.9 105.9 54.5 102.1 52.3 101.3C51.1 100.9 50.7 101.7 51.4 103.1C51.6 103.5 51.8 103.9 52 104.2C53.6 106.2 55.1 106.7 55.6 106.5Z" fill="#E73728"/>
<path d="M61.8 114.2C63.1 113.5 60.3 109.6 58 108.8C56.7 108.4 56.4 109.3 57.2 110.8C57.5 111.3 57.7 111.6 58 111.9C59.7 114 61.3 114.5 61.8 114.2Z" fill="#E73728"/>
<path d="M68.4 121.5C69.7 120.6 66.2 116.5 63.8 116.1C62.6 115.9 62.5 117 63.5 118.5C63.7 118.8 64 119.1 64.2 119.3C66.2 121.4 67.9 121.8 68.4 121.5Z" fill="#E73728"/>
<path d="M75.3 128.3C76.5 127.3 72.8 123.4 70.4 123.2C69.2 123.1 69.2 124.1 70.3 125.6C70.6 125.9 70.8 126.2 71 126.4C73.2 128.3 74.9 128.7 75.3 128.3Z" fill="#E73728"/>
<path d="M82.6 134.6C83.7 133.6 79.8 130 77.5 129.9C76.3 129.9 76.4 130.9 77.7 132.3C78 132.6 78.3 132.9 78.5 133C80.6 134.8 82.2 135 82.6 134.6Z" fill="#E73728"/>
<path d="M90.2 140.6C91.1 139.6 87.2 136.4 85.2 136.4C84.1 136.4 84.3 137.4 85.5 138.6C85.8 138.9 86 139.1 86.3 139.3C88.4 140.8 89.8 141 90.2 140.6Z" fill="#E73728"/>
<path d="M98.1 146.1C98.9 145.1 94.7 142.1 93 142.5C92.2 142.7 92.5 143.7 94.4 145.1C96.5 146.4 97.8 146.4 98.1 146.1Z" fill="#E73728"/>
<path d="M106.4 151.1C107 150.1 103.1 147.7 101.5 148.1C100.8 148.3 101.1 149.2 103 150.4C104.9 151.5 106.1 151.5 106.4 151.1Z" fill="#E73728"/>
<path d="M114.9 155.7C115.3 154.8 111.6 152.8 110.4 153.3C109.8 153.5 110.2 154.3 111.9 155.2C113.7 156.1 114.8 156 114.9 155.7Z" fill="#E73728"/>
<path d="M123.8 159.8C124.1 159 120.7 157.4 119.7 157.9C119.2 158.1 119.6 158.8 121.2 159.5C122.8 160.2 123.7 160.1 123.8 159.8Z" fill="#E73728"/>
<path d="M133.1 163.5C133.3 162.8 130.2 161.6 129.4 162C129 162.2 129.4 162.8 130.8 163.3C132.2 163.9 133 163.8 133.1 163.5Z" fill="#E73728"/>
<path d="M142.6 166.6C142.7 166 140.1 165.2 139.4 165.6C139.1 165.8 139.5 166.3 140.7 166.6C141.9 167 142.6 166.9 142.6 166.6Z" fill="#E73728"/>
<path d="M152.4 169.3C152.4 168.8 150.1 168.2 149.7 168.7C149.6 168.9 149.8 169.2 150.8 169.4C151.9 169.6 152.4 169.4 152.4 169.3Z" fill="#E73728"/>
<path d="M162.3 171.3C162.3 170.9 160.7 170.6 160.4 170.9C160.2 171 160.5 171.3 161.3 171.4C162 171.6 162.3 171.4 162.3 171.3Z" fill="#E73728"/>
<path d="M172.2 172.8C172.2 172.6 171.1 172.4 170.9 172.6C170.8 172.7 171 172.8 171.5 172.9C172 173 172.2 172.9 172.2 172.8Z" fill="#E73728"/>
<path d="M182 173.7C182 173.6 181.5 173.6 181.4 173.7C181.4 173.7 181.5 173.8 181.7 173.8C182 173.7 182.1 173.7 182 173.7Z" fill="#E73728"/>
<path d="M28.1 15.7L28 15.5L27.9 15.7L28 15.9L28.1 15.7Z" fill="#E73728"/>
<path d="M28.7 25.6C29 25.6 29 25.1 28.7 24.8C28.5 24.6 28.3 24.6 28.3 24.9V25C28.4 25.4 28.6 25.6 28.7 25.6Z" fill="#E73728"/>
<path d="M30 35.3C30.4 35.3 30.4 34.4 30 33.9C29.7 33.6 29.3 33.7 29.3 34.2C29.3 34.3 29.3 34.4 29.3 34.4C29.4 35 29.8 35.3 30 35.3Z" fill="#E73728"/>
<path d="M31.8 44.8C32.4 44.8 32.3 43.5 31.7 42.9C31.2 42.5 30.8 42.7 30.8 43.3C30.8 43.4 30.8 43.5 30.8 43.6C31.1 44.4 31.6 44.8 31.8 44.8Z" fill="#E73728"/>
<path d="M34.3 54.1C35.1 54 34.9 52.5 34 51.7C33.4 51.1 32.8 51.4 32.9 52.3C32.9 52.5 33 52.6 33 52.7C33.3 53.7 33.9 54.1 34.3 54.1Z" fill="#E73728"/>
<path d="M37.3 63.2C38.2 63.1 37.8 61 36.6 60.2C35.9 59.7 35.3 60.1 35.5 61.1C35.5 61.3 35.6 61.4 35.6 61.6C36.1 62.8 36.9 63.3 37.3 63.2Z" fill="#E73728"/>
<path d="M40.8 72.1C41.8 71.9 41.2 69.5 39.8 68.7C38.9 68.2 38.3 68.7 38.6 69.8C38.6 70 38.7 70.2 38.8 70.3C39.4 71.8 40.3 72.2 40.8 72.1Z" fill="#E73728"/>
<path d="M44.9 80.8C46 80.5 45.1 77.8 43.5 77C42.5 76.4 41.9 77.1 42.2 78.3C42.3 78.5 42.4 78.7 42.4 78.9C43.3 80.5 44.4 81 44.9 80.8Z" fill="#E73728"/>
<path d="M49.4 89.2C50.6 88.8 49.4 85.9 47.6 85C46.4 84.4 45.8 85.2 46.3 86.5C46.4 86.8 46.5 87 46.6 87.2C47.7 88.9 48.9 89.4 49.4 89.2Z" fill="#E73728"/>
<path d="M54.5 97.3C55.8 96.8 54.2 93.7 52.3 92.8C51 92.2 50.4 93.1 51 94.6C51.1 94.9 51.3 95.1 51.4 95.3C52.6 97.1 53.9 97.6 54.5 97.3Z" fill="#E73728"/>
<path d="M60 105.1C61.3 104.4 59.2 101 57.1 100.4C55.8 100 55.4 101.1 56.3 102.7C56.4 102.9 56.5 103.1 56.6 103.2C58 105 59.4 105.4 60 105.1Z" fill="#E73728"/>
<path d="M65.9 112.5C67.2 111.7 64.8 108.2 62.6 107.7C61.2 107.4 60.9 108.5 61.9 110.1C62 110.3 62.2 110.5 62.3 110.6C63.9 112.5 65.4 112.9 65.9 112.5Z" fill="#E73728"/>
<path d="M72.3 119.6C73.6 118.7 70.8 115.2 68.5 114.8C67 114.6 66.8 115.8 68 117.3C68.1 117.5 68.3 117.7 68.4 117.8C70.2 119.7 71.7 120 72.3 119.6Z" fill="#E73728"/>
<path d="M79 126.2C80.2 125.2 77.2 121.9 74.9 121.7C73.6 121.6 73.3 122.6 74.4 124C74.6 124.3 74.9 124.5 75 124.7C76.8 126.3 78.4 126.7 79 126.2Z" fill="#E73728"/>
<path d="M86 132.4C87 131.4 83.9 128.3 81.7 128.2C80.4 128.1 80.3 129.2 81.4 130.5C81.6 130.8 81.9 131 82.1 131.2C84.1 132.7 85.6 132.8 86 132.4Z" fill="#E73728"/>
<path d="M93.4 138.1C94.4 137 90.9 134.1 88.9 134.3C87.7 134.4 88 135.7 89.4 136.9C89.5 137 89.6 137 89.6 137.1C91.6 138.6 93 138.6 93.4 138.1Z" fill="#E73728"/>
<path d="M101 143.5C101.8 142.4 98.4 139.9 96.6 140.2C95.5 140.4 95.9 141.5 97.3 142.6C97.4 142.7 97.5 142.7 97.5 142.8C99.4 143.9 100.7 143.9 101 143.5Z" fill="#E73728"/>
<path d="M109 148.4C109.6 147.4 106.4 145.3 104.8 145.6C103.9 145.8 104.3 146.8 105.6 147.7C105.7 147.7 105.8 147.8 105.8 147.8C107.6 148.9 108.8 148.8 109 148.4Z" fill="#E73728"/>
<path d="M117.3 152.8C117.8 151.9 114.7 150.1 113.3 150.5C112.5 150.7 112.8 151.6 114.4 152.5C116.1 153.4 117.2 153.2 117.3 152.8Z" fill="#E73728"/>
<path d="M126 156.9C126.3 156.1 123.5 154.7 122.3 155.1C121.6 155.3 122 156.1 123.5 156.8C124.9 157.4 125.8 157.3 126 156.9Z" fill="#E73728"/>
<path d="M134.9 160.4C135.1 159.6 132.4 158.5 131.5 159.1C131.1 159.4 131.4 160 132.7 160.5C134.1 160.9 134.8 160.7 134.9 160.4Z" fill="#E73728"/>
<path d="M144.1 163.5C144.2 162.9 141.9 162.1 141.2 162.6C140.9 162.8 141.2 163.3 142.3 163.7C143.5 163.9 144.1 163.7 144.1 163.5Z" fill="#E73728"/>
<path d="M153.6 166C153.7 165.5 151.8 165 151.3 165.4C151.1 165.6 151.4 166 152.3 166.2C153.2 166.4 153.6 166.2 153.6 166Z" fill="#E73728"/>
<path d="M163.2 168C163.2 167.6 161.8 167.3 161.5 167.6C161.3 167.8 161.6 168 162.3 168.1C162.9 168.3 163.2 168.2 163.2 168Z" fill="#E73728"/>
<path d="M172.8 169.4C172.8 169.2 171.9 169 171.7 169.2C171.6 169.3 171.8 169.4 172.2 169.5C172.6 169.6 172.8 169.5 172.8 169.4Z" fill="#E73728"/>
<path d="M182.1 170.2L181.9 170.3L182.1 170.4L182.3 170.3L182.1 170.2Z" fill="#E73728"/>
<path d="M34.2 17.5L34.1 17.4V17.6L34.2 17.5Z" fill="#E73728"/>
<path d="M34.8 27C35 27 35.1 26.6 34.8 26.4C34.6 26.2 34.5 26.3 34.4 26.5C34.4 26.5 34.4 26.5 34.4 26.6C34.5 26.8 34.7 27 34.8 27Z" fill="#E73728"/>
<path d="M36 36.3C36.4 36.3 36.4 35.5 36 35.2C35.7 34.9 35.4 35 35.4 35.5V35.6C35.5 36 35.8 36.3 36 36.3Z" fill="#E73728"/>
<path d="M37.8 45.4C38.4 45.4 38.3 44.3 37.7 43.8C37.2 43.4 36.8 43.6 36.8 44.3C36.8 44.4 36.8 44.4 36.8 44.5C37 45.1 37.5 45.4 37.8 45.4Z" fill="#E73728"/>
<path d="M40.1 54.4C40.8 54.3 40.7 52.9 39.9 52.3C39.3 51.8 38.7 52.2 38.8 53C38.8 53.1 38.8 53.2 38.9 53.2C39.2 54.1 39.8 54.4 40.1 54.4Z" fill="#E73728"/>
<path d="M43 63.1C43.9 63 43.6 61.3 42.6 60.6C41.8 60.1 41.2 60.5 41.4 61.5C41.4 61.6 41.5 61.7 41.5 61.8C41.8 62.8 42.6 63.2 43 63.1Z" fill="#E73728"/>
<path d="M46.4 71.7C47.4 71.5 47 69.5 45.7 68.7C44.8 68.1 44.1 68.6 44.3 69.7C44.3 69.9 44.4 70.1 44.4 70.2C45 71.4 45.9 71.8 46.4 71.7Z" fill="#E73728"/>
<path d="M50.3 80C51.4 79.7 50.7 77.5 49.3 76.7C48.3 76.1 47.5 76.7 47.8 77.9C47.9 78.1 47.9 78.3 48 78.4C48.7 79.8 49.8 80.2 50.3 80Z" fill="#E73728"/>
<path d="M54.7 88.1C55.9 87.7 55 85.3 53.4 84.5C52.2 83.9 51.4 84.6 51.9 85.9C52 86.1 52.1 86.3 52.2 86.5C53 87.9 54.1 88.3 54.7 88.1Z" fill="#E73728"/>
<path d="M59.5 95.9C60.8 95.3 59.5 92.6 57.6 91.9C56.3 91.5 55.7 92.4 56.3 93.8C56.4 93.9 56.5 94.1 56.5 94.2C57.6 95.8 58.9 96.2 59.5 95.9Z" fill="#E73728"/>
<path d="M64.8 103.4C66.1 102.7 64.5 99.8 62.5 99.3C61.1 98.9 60.5 100 61.3 101.4C61.4 101.5 61.5 101.7 61.6 101.8C62.8 103.4 64.2 103.7 64.8 103.4Z" fill="#E73728"/>
<path d="M70.5 110.5C71.8 109.7 69.9 106.8 67.9 106.3C66.4 106 65.9 107.1 66.9 108.6C67 108.7 67.1 108.9 67.2 109C68.5 110.6 69.9 110.8 70.5 110.5Z" fill="#E73728"/>
<path d="M76.6 117.3C77.8 116.4 75.7 113.5 73.6 113.1C72.1 112.8 71.6 114 72.7 115.5C72.8 115.6 72.9 115.8 73.1 115.9C74.6 117.6 76 117.6 76.6 117.3Z" fill="#E73728"/>
<path d="M83 123.6C84.2 122.6 81.6 119.7 79.5 119.6C78.1 119.5 77.9 120.9 79.2 122.3C79.3 122.4 79.3 122.4 79.4 122.5C81 124 82.5 124.1 83 123.6Z" fill="#E73728"/>
<path d="M89.7 129.6C90.8 128.6 88.1 125.8 86 125.9C84.6 125.9 84.6 127.2 85.9 128.5C86 128.6 86 128.6 86.1 128.7C87.9 130.1 89.3 130.1 89.7 129.6Z" fill="#E73728"/>
<path d="M96.8 135.2C97.7 134.1 95 131.7 93.1 131.9C91.8 132 91.9 133.3 93.2 134.4C93.3 134.5 93.3 134.5 93.4 134.6C95.1 135.7 96.4 135.7 96.8 135.2Z" fill="#E73728"/>
<path d="M104.2 140.4C105 139.4 102.3 137.2 100.5 137.5C99.3 137.7 99.5 138.8 100.8 139.8C100.9 139.8 100.9 139.9 101 139.9C102.7 141 103.9 140.8 104.2 140.4Z" fill="#E73728"/>
<path d="M112 145.1C112.6 144.1 110 142.3 108.4 142.6C107.4 142.8 107.6 143.9 108.9 144.7C109 144.7 109 144.8 109.1 144.8C110.6 145.7 111.7 145.5 112 145.1Z" fill="#E73728"/>
<path d="M120 149.4C120.5 148.4 117.8 146.8 116.5 147.4C115.9 147.7 115.9 148.5 117.4 149.3C118.8 150.1 119.8 149.8 120 149.4Z" fill="#E73728"/>
<path d="M128.3 153.3C128.7 152.4 126.2 151.2 125.1 151.7C124.5 152 124.7 152.7 126 153.4C127.3 153.9 128.1 153.7 128.3 153.3Z" fill="#E73728"/>
<path d="M136.9 156.8C137.1 156 134.9 155.1 134 155.6C133.6 155.8 133.7 156.5 134.9 157C136.2 157.3 136.8 157 136.9 156.8Z" fill="#E73728"/>
<path d="M145.8 159.7C145.9 159.1 144.1 158.4 143.4 158.8C143.1 159 143.2 159.5 144.3 159.9C145.2 160.2 145.7 160 145.8 159.7Z" fill="#E73728"/>
<path d="M155 162.2C155.1 161.7 153.5 161.2 153 161.6C152.7 161.8 152.9 162.2 153.8 162.4C154.5 162.6 154.9 162.4 155 162.2Z" fill="#E73728"/>
<path d="M164.2 164.1C164.2 163.7 163.1 163.5 162.8 163.8C162.6 163.9 162.8 164.2 163.4 164.3C163.9 164.4 164.2 164.2 164.2 164.1Z" fill="#E73728"/>
<path d="M173.4 165.5C173.4 165.3 172.8 165.2 172.6 165.4C172.5 165.5 172.6 165.6 173 165.7C173.3 165.7 173.4 165.6 173.4 165.5Z" fill="#E73728"/>
<path d="M182.4 166.3L182.5 166.4L182.6 166.3H182.4Z" fill="#E73728"/>
<path d="M41.4 28.2C41.6 28.2 41.6 28 41.5 27.8C41.4 27.6 41.2 27.7 41.2 27.9C41.2 28.1 41.3 28.2 41.4 28.2Z" fill="#E73728"/>
<path d="M42.5 37C42.8 37 42.9 36.5 42.6 36.2C42.3 35.9 42 36 42 36.4V36.5C42.1 36.9 42.4 37 42.5 37Z" fill="#E73728"/>
<path d="M44.3 45.8C44.8 45.8 44.8 45 44.3 44.5C43.9 44.1 43.4 44.3 43.4 44.9V45C43.6 45.6 44 45.8 44.3 45.8Z" fill="#E73728"/>
<path d="M46.5 54.4C47.2 54.3 47.1 53.3 46.4 52.7C45.8 52.2 45.2 52.5 45.3 53.2C45.3 53.3 45.3 53.3 45.3 53.4C45.6 54.2 46.2 54.4 46.5 54.4Z" fill="#E73728"/>
<path d="M49.2 62.8C50 62.6 49.9 61.3 49 60.7C48.2 60.1 47.5 60.5 47.7 61.4C47.7 61.5 47.7 61.6 47.8 61.6C48.1 62.5 48.8 62.8 49.2 62.8Z" fill="#E73728"/>
<path d="M52.5 71C53.4 70.8 53.2 69.2 52.1 68.5C51.2 67.9 50.4 68.4 50.6 69.5C50.6 69.6 50.7 69.7 50.7 69.8C51.2 70.8 52 71.1 52.5 71Z" fill="#E73728"/>
<path d="M56.2 78.9C57.3 78.6 56.8 76.7 55.4 76C54.4 75.5 53.6 76.2 54 77.3C54 77.4 54.1 77.5 54.1 77.6C54.7 78.8 55.7 79.1 56.2 78.9Z" fill="#E73728"/>
<path d="M60.3 86.6C61.5 86.1 60.8 84.1 59.2 83.5C58 83 57.3 83.8 57.7 85C57.7 85.1 57.8 85.2 57.9 85.3C58.7 86.6 59.8 86.9 60.3 86.6Z" fill="#E73728"/>
<path d="M65 94.1C66.2 93.5 65.3 91.3 63.6 90.7C62.3 90.2 61.5 91.1 62.1 92.4C62.2 92.5 62.2 92.7 62.3 92.8C63.1 94.1 64.3 94.4 65 94.1Z" fill="#E73728"/>
<path d="M70 101.3C71.2 100.6 70.1 98.3 68.3 97.8C66.9 97.4 66.1 98.4 66.9 99.7C67 99.8 67.1 100 67.1 100.1C68.1 101.4 69.4 101.6 70 101.3Z" fill="#E73728"/>
<path d="M75.4 108.1C76.6 107.3 75.3 105 73.4 104.5C71.9 104.1 71.2 105.2 72.1 106.6C72.2 106.7 72.3 106.9 72.4 107C73.5 108.3 74.9 108.4 75.4 108.1Z" fill="#E73728"/>
<path d="M81.2 114.5C82.4 113.6 80.7 111.1 78.7 110.9C77.2 110.7 76.8 112 77.9 113.3C77.9 113.4 78 113.4 78.1 113.5C79.3 114.9 80.7 115 81.2 114.5Z" fill="#E73728"/>
<path d="M87.4 120.7C88.5 119.7 86.6 117.4 84.7 117.3C83.3 117.2 82.9 118.5 84 119.8C84 119.9 84.1 119.9 84.2 120C85.5 121.1 86.9 121.1 87.4 120.7Z" fill="#E73728"/>
<path d="M93.8 126.4C94.8 125.4 92.9 123.2 90.9 123.2C89.5 123.2 89.3 124.5 90.5 125.7C90.6 125.8 90.6 125.8 90.7 125.9C92.1 127 93.4 126.9 93.8 126.4Z" fill="#E73728"/>
<path d="M100.6 131.8C101.5 130.8 99.4 128.8 97.6 128.9C96.3 129 96.2 130.2 97.4 131.3C97.5 131.3 97.5 131.4 97.6 131.4C99 132.4 100.2 132.2 100.6 131.8Z" fill="#E73728"/>
<path d="M107.7 136.8C108.4 135.8 106.4 134 104.7 134.2C103.5 134.3 103.4 135.5 104.7 136.4C104.8 136.4 104.8 136.5 104.9 136.5C106.2 137.4 107.3 137.3 107.7 136.8Z" fill="#E73728"/>
<path d="M115.1 141.3C115.7 140.3 113.5 138.7 112 139.1C111.1 139.4 111.1 140.4 112.5 141.2C113.9 142 114.9 141.8 115.1 141.3Z" fill="#E73728"/>
<path d="M122.8 145.5C123.3 144.6 121.2 143.3 119.9 143.7C119.1 144 119.2 144.9 120.5 145.6C121.8 146.2 122.6 145.9 122.8 145.5Z" fill="#E73728"/>
<path d="M130.8 149.2C131.2 148.4 129.2 147.3 128.2 147.8C127.5 148.1 127.7 148.9 128.8 149.4C129.9 149.9 130.6 149.6 130.8 149.2Z" fill="#E73728"/>
<path d="M139.1 152.5C139.3 151.8 137.6 151 136.7 151.4C136.2 151.7 136.3 152.3 137.4 152.8C138.4 153.1 139 152.9 139.1 152.5Z" fill="#E73728"/>
<path d="M147.6 155.4C147.7 154.8 146.3 154.2 145.6 154.6C145.2 154.8 145.3 155.3 146.2 155.6C147.1 155.9 147.5 155.6 147.6 155.4Z" fill="#E73728"/>
<path d="M156.4 157.8C156.5 157.3 155.3 157 154.8 157.3C154.5 157.5 154.7 157.9 155.4 158.1C156 158.2 156.3 158 156.4 157.8Z" fill="#E73728"/>
<path d="M165.2 159.6C165.2 159.3 164.5 159.1 164.2 159.3C164 159.4 164.2 159.7 164.6 159.8C165 159.9 165.2 159.7 165.2 159.6Z" fill="#E73728"/>
<path d="M174.1 161C174.1 160.9 173.7 160.7 173.6 160.9C173.5 161 173.6 161.1 173.8 161.1C174 161.1 174.1 161 174.1 161Z" fill="#E73728"/>
<path d="M48.5 29.1L48.4 29V29.1L48.5 29.2V29.1Z" fill="#E73728"/>
<path d="M49.6 37.7C49.8 37.7 49.9 37.4 49.7 37.2C49.5 37 49.3 37.1 49.2 37.3C49.2 37.3 49.2 37.3 49.2 37.4C49.3 37.5 49.4 37.7 49.6 37.7Z" fill="#E73728"/>
<path d="M51.2 46C51.6 46 51.7 45.4 51.2 45C50.8 44.7 50.4 44.9 50.5 45.3C50.5 45.3 50.5 45.3 50.5 45.4C50.6 45.8 51 46 51.2 46Z" fill="#E73728"/>
<path d="M53.3 54.2C53.9 54.1 53.9 53.2 53.3 52.8C52.8 52.4 52.2 52.7 52.3 53.3V53.4C52.5 54 53 54.2 53.3 54.2Z" fill="#E73728"/>
<path d="M55.9 62.1C56.6 61.9 56.5 60.9 55.8 60.4C55.1 59.9 54.4 60.4 54.6 61.2V61.3C54.9 62 55.5 62.2 55.9 62.1Z" fill="#E73728"/>
<path d="M59 69.9C59.9 69.7 59.7 68.4 58.7 67.8C57.8 67.3 57 67.9 57.3 68.8V68.9C57.8 69.8 58.6 70.1 59 69.9Z" fill="#E73728"/>
<path d="M62.5 77.5C63.5 77.2 63.2 75.7 62 75.1C61 74.6 60.2 75.2 60.5 76.2C60.5 76.3 60.6 76.4 60.6 76.5C61.1 77.5 62 77.7 62.5 77.5Z" fill="#E73728"/>
<path d="M66.5 84.9C67.5 84.5 67.1 82.8 65.8 82.3C64.7 81.8 63.8 82.5 64.2 83.6C64.2 83.7 64.3 83.8 64.3 83.9C64.9 84.9 65.9 85.1 66.5 84.9Z" fill="#E73728"/>
<path d="M70.8 92C71.9 91.5 71.3 89.7 69.9 89.2C68.7 88.7 67.8 89.6 68.3 90.7C68.3 90.8 68.4 90.9 68.5 91C69.2 92 70.2 92.3 70.8 92Z" fill="#E73728"/>
<path d="M75.6 98.8C76.7 98.2 76 96.3 74.4 95.8C73.1 95.4 72.2 96.3 72.8 97.5C72.9 97.6 72.9 97.7 73 97.8C73.9 99 75.1 99.1 75.6 98.8Z" fill="#E73728"/>
<path d="M80.8 105.3C81.9 104.5 80.9 102.5 79.2 102.2C77.8 102 77.1 103.1 78 104.3C78 104.4 78.1 104.4 78.1 104.5C79 105.6 80.2 105.6 80.8 105.3Z" fill="#E73728"/>
<path d="M86.3 111.5C87.4 110.7 86.2 108.7 84.4 108.5C83 108.3 82.4 109.5 83.3 110.7C83.3 110.7 83.4 110.8 83.4 110.9C84.5 111.9 85.7 111.8 86.3 111.5Z" fill="#E73728"/>
<path d="M92.1 117.3C93.1 116.4 91.8 114.5 90 114.4C88.6 114.3 88.1 115.5 89.1 116.7L89.2 116.8C90.4 117.8 91.6 117.7 92.1 117.3Z" fill="#E73728"/>
<path d="M98.3 122.8C99.2 121.9 97.8 120.1 96.1 120C94.7 120 94.3 121.2 95.4 122.3C95.4 122.3 95.5 122.4 95.6 122.4C96.7 123.4 97.8 123.2 98.3 122.8Z" fill="#E73728"/>
<path d="M104.7 127.9C105.5 127 104 125.3 102.4 125.4C101.1 125.5 100.8 126.7 101.9 127.6L102 127.7C103.3 128.6 104.4 128.4 104.7 127.9Z" fill="#E73728"/>
<path d="M111.5 132.7C112.2 131.7 110.5 130.2 109 130.5C108 130.7 107.6 131.7 109 132.7C110.3 133.4 111.2 133.1 111.5 132.7Z" fill="#E73728"/>
<path d="M118.6 137.1C119.2 136.2 117.5 134.8 116.2 135.2C115.4 135.4 115 136.4 116.3 137.2C117.4 137.8 118.3 137.5 118.6 137.1Z" fill="#E73728"/>
<path d="M125.9 141C126.3 140.1 124.8 139.1 123.6 139.4C122.8 139.7 122.8 140.6 123.9 141.2C124.9 141.7 125.7 141.4 125.9 141Z" fill="#E73728"/>
<path d="M133.5 144.6C133.8 143.8 132.4 142.9 131.4 143.3C130.7 143.6 130.8 144.4 131.8 144.8C132.7 145.3 133.4 145 133.5 144.6Z" fill="#E73728"/>
<path d="M141.4 147.8C141.6 147.1 140.4 146.5 139.6 146.8C139 147.1 139.1 147.7 140 148.1C140.8 148.4 141.3 148.1 141.4 147.8Z" fill="#E73728"/>
<path d="M149.5 150.5C149.6 150 148.6 149.5 148 149.8C147.6 150 147.7 150.5 148.4 150.8C149.1 151 149.5 150.7 149.5 150.5Z" fill="#E73728"/>
<path d="M157.9 152.8C158 152.4 157.1 152.1 156.7 152.4C156.5 152.6 156.5 152.9 157.1 153.1C157.6 153.2 157.9 153 157.9 152.8Z" fill="#E73728"/>
<path d="M166.3 154.6C166.3 154.4 165.8 154.2 165.6 154.4C165.5 154.5 165.5 154.7 165.9 154.8C166.2 154.8 166.3 154.7 166.3 154.6Z" fill="#E73728"/>
<path d="M174.7 155.8H174.5L174.6 155.9H174.8L174.7 155.8Z" fill="#E73728"/>
<path d="M57.2 38L57 37.8L56.8 37.9L57.1 38.1L57.2 38Z" fill="#E73728"/>
<path d="M58.6 46C58.9 46 59 45.6 58.7 45.4C58.4 45.2 58.1 45.3 58.1 45.6C58.2 45.9 58.4 46 58.6 46Z" fill="#E73728"/>
<path d="M60.6 53.7C61.1 53.6 61.1 53 60.7 52.7C60.3 52.4 59.7 52.6 59.8 53.1C59.8 53.1 59.8 53.1 59.8 53.2C59.9 53.6 60.3 53.8 60.6 53.7Z" fill="#E73728"/>
<path d="M63 61.3C63.6 61.2 63.6 60.4 63 60C62.4 59.6 61.7 59.9 61.9 60.6V60.7C62.2 61.2 62.7 61.3 63 61.3Z" fill="#E73728"/>
<path d="M65.9 68.7C66.6 68.5 66.6 67.5 65.8 67.1C65 66.7 64.2 67.1 64.5 67.9V68C64.9 68.6 65.5 68.8 65.9 68.7Z" fill="#E73728"/>
<path d="M69.3 75.8C70.1 75.5 70 74.4 69.1 73.9C68.2 73.4 67.3 74 67.6 74.9V75C68 75.9 68.8 76 69.3 75.8Z" fill="#E73728"/>
<path d="M73 82.8C73.9 82.4 73.7 81.2 72.6 80.7C71.6 80.2 70.7 80.9 71 81.8C71 81.9 71.1 82 71.1 82C71.6 82.9 72.5 83 73 82.8Z" fill="#E73728"/>
<path d="M77.1 89.5C78.1 89 77.7 87.5 76.4 87.2C75.3 86.9 74.4 87.7 74.9 88.7L75 88.8C75.7 89.7 76.6 89.7 77.1 89.5Z" fill="#E73728"/>
<path d="M81.6 95.9C82.6 95.3 82 93.8 80.7 93.5C79.5 93.2 78.6 94.2 79.3 95.2L79.4 95.3C80.1 96.2 81.1 96.2 81.6 95.9Z" fill="#E73728"/>
<path d="M86.5 102.1C87.5 101.4 86.8 99.9 85.4 99.6C84.1 99.4 83.3 100.4 84 101.5L84.1 101.6C84.9 102.5 86 102.4 86.5 102.1Z" fill="#E73728"/>
<path d="M91.7 108C92.7 107.2 91.8 105.7 90.4 105.5C89.1 105.3 88.3 106.4 89.1 107.5L89.2 107.6C90.1 108.5 91.2 108.3 91.7 108Z" fill="#E73728"/>
<path d="M97.2 113.5C98.1 112.7 97.2 111.2 95.7 111.1C94.4 111 93.7 112.2 94.6 113.1L94.7 113.2C95.7 114.1 96.8 113.9 97.2 113.5Z" fill="#E73728"/>
<path d="M103 118.7C103.8 117.9 102.8 116.4 101.4 116.4C100.1 116.4 99.6 117.5 100.5 118.5L100.6 118.6C101.6 119.4 102.6 119.1 103 118.7Z" fill="#E73728"/>
<path d="M109.1 123.6C109.9 122.7 108.7 121.3 107.3 121.5C106.2 121.6 105.8 122.7 106.8 123.6C107.9 124.3 108.8 124 109.1 123.6Z" fill="#E73728"/>
<path d="M115.6 128.1C116.2 127.2 115 126 113.7 126.2C112.8 126.4 112.3 127.4 113.4 128.2C114.4 128.9 115.3 128.6 115.6 128.1Z" fill="#E73728"/>
<path d="M122.3 132.3C122.8 131.5 121.6 130.4 120.5 130.7C119.7 130.9 119.3 131.8 120.4 132.5C121.3 133 122 132.7 122.3 132.3Z" fill="#E73728"/>
<path d="M129.2 136.1C129.6 135.3 128.5 134.4 127.5 134.7C126.8 134.9 126.5 135.8 127.5 136.3C128.4 136.8 129 136.4 129.2 136.1Z" fill="#E73728"/>
<path d="M136.4 139.5C136.7 138.8 135.7 138.1 134.9 138.4C134.2 138.6 134.2 139.4 135 139.8C135.8 140.1 136.3 139.8 136.4 139.5Z" fill="#E73728"/>
<path d="M143.9 142.5C144.1 141.9 143.1 141.4 142.5 141.7C142 141.9 142.1 142.5 142.8 142.8C143.4 143.1 143.8 142.8 143.9 142.5Z" fill="#E73728"/>
<path d="M151.6 145.1C151.7 144.7 151 144.3 150.5 144.6C150.2 144.8 150.2 145.2 150.8 145.4C151.3 145.5 151.5 145.3 151.6 145.1Z" fill="#E73728"/>
<path d="M159.5 147.3C159.6 147 159 146.8 158.7 147C158.5 147.1 158.6 147.4 158.9 147.5C159.3 147.6 159.5 147.4 159.5 147.3Z" fill="#E73728"/>
<path d="M167.4 148.8L167.1 148.9L167.3 149.1L167.6 149L167.4 148.8Z" fill="#E73728"/>
<path d="M66.4 45.8C66.6 45.8 66.6 45.6 66.5 45.5C66.3 45.4 66.1 45.4 66.1 45.6C66.2 45.8 66.3 45.8 66.4 45.8Z" fill="#E73728"/>
<path d="M68.3 53.1C68.6 53 68.7 52.7 68.4 52.5C68.1 52.3 67.7 52.5 67.7 52.8C67.8 53 68.1 53.1 68.3 53.1Z" fill="#E73728"/>
<path d="M70.6 60.2C71.1 60.1 71.1 59.6 70.7 59.3C70.2 59 69.6 59.2 69.7 59.7C69.7 59.7 69.7 59.7 69.7 59.8C69.9 60.2 70.3 60.2 70.6 60.2Z" fill="#E73728"/>
<path d="M73.3 67.1C73.9 66.9 73.9 66.2 73.4 65.9C72.8 65.5 72 65.9 72.2 66.5C72.2 66.5 72.2 66.5 72.2 66.6C72.4 67.1 72.9 67.2 73.3 67.1Z" fill="#E73728"/>
<path d="M76.4 73.9C77.1 73.6 77.1 72.8 76.3 72.4C75.5 72.1 74.8 72.6 75 73.2V73.3C75.4 74 76.1 74 76.4 73.9Z" fill="#E73728"/>
<path d="M79.9 80.4C80.7 80.1 80.5 79.1 79.7 78.7C78.8 78.4 78 79 78.3 79.7V79.8C78.8 80.6 79.5 80.6 79.9 80.4Z" fill="#E73728"/>
<path d="M83.8 86.7C84.6 86.3 84.4 85.2 83.4 84.9C82.4 84.6 81.5 85.3 81.9 86.2C81.9 86.2 81.9 86.3 82 86.3C82.5 86.9 83.3 87 83.8 86.7Z" fill="#E73728"/>
<path d="M88 92.8C88.9 92.3 88.5 91.1 87.5 90.9C86.4 90.6 85.5 91.5 86 92.3C86 92.3 86 92.4 86.1 92.4C86.6 93.1 87.5 93.1 88 92.8Z" fill="#E73728"/>
<path d="M92.5 98.6C93.3 98 92.9 96.8 91.8 96.6C90.7 96.4 89.8 97.3 90.4 98.2L90.5 98.3C91.2 99 92.1 98.9 92.5 98.6Z" fill="#E73728"/>
<path d="M97.4 104.1C98.2 103.5 97.7 102.2 96.6 102.1C95.4 101.9 94.7 102.9 95.3 103.8L95.4 103.9C96 104.6 96.9 104.5 97.4 104.1Z" fill="#E73728"/>
<path d="M102.6 109.3C103.4 108.6 102.8 107.4 101.7 107.3C100.5 107.2 99.8 108.3 100.5 109.1L100.6 109.2C101.3 109.9 102.1 109.7 102.6 109.3Z" fill="#E73728"/>
<path d="M108.1 114.3C108.8 113.5 108.1 112.4 106.9 112.4C105.9 112.4 105.2 113.4 106.1 114.3C106.8 114.8 107.7 114.7 108.1 114.3Z" fill="#E73728"/>
<path d="M113.8 118.9C114.4 118.1 113.6 117.1 112.5 117.2C111.5 117.3 111 118.3 111.9 119C112.7 119.5 113.5 119.2 113.8 118.9Z" fill="#E73728"/>
<path d="M119.9 123.1C120.4 122.4 119.6 121.4 118.6 121.6C117.7 121.7 117.3 122.7 118.2 123.3C118.9 123.8 119.6 123.5 119.9 123.1Z" fill="#E73728"/>
<path d="M126.2 127.1C126.6 126.4 125.9 125.6 125 125.8C124.2 126 123.9 126.9 124.7 127.4C125.4 127.7 126 127.4 126.2 127.1Z" fill="#E73728"/>
<path d="M132.7 130.7C133 130.1 132.3 129.4 131.5 129.6C130.9 129.8 130.6 130.6 131.4 131C132.1 131.3 132.6 131 132.7 130.7Z" fill="#E73728"/>
<path d="M139.5 133.9C139.7 133.4 139.1 132.8 138.4 133C137.9 133.2 137.7 133.8 138.4 134.2C139 134.4 139.4 134.1 139.5 133.9Z" fill="#E73728"/>
<path d="M146.5 136.7C146.7 136.2 146.1 135.9 145.6 136.1C145.3 136.3 145.2 136.8 145.7 137C146.1 137.2 146.5 137 146.5 136.7Z" fill="#E73728"/>
<path d="M153.8 139.2C153.9 138.9 153.4 138.6 153.1 138.8C152.8 139 152.9 139.3 153.2 139.4C153.6 139.5 153.8 139.3 153.8 139.2Z" fill="#E73728"/>
<path d="M161.3 141.3C161.3 141.1 161.1 141 160.9 141.1C160.8 141.2 160.8 141.4 161 141.4C161.2 141.5 161.3 141.3 161.3 141.3Z" fill="#E73728"/>
<path d="M76.4 52.2C76.6 52.2 76.6 52 76.5 51.9C76.3 51.8 76.1 51.9 76.1 52C76.1 52.2 76.3 52.2 76.4 52.2Z" fill="#E73728"/>
<path d="M78.5 58.9C78.8 58.8 78.9 58.5 78.6 58.3C78.3 58.1 77.9 58.3 77.9 58.6C78.1 58.8 78.3 58.9 78.5 58.9Z" fill="#E73728"/>
<path d="M81.1 65.4C81.5 65.3 81.6 64.8 81.2 64.6C80.7 64.4 80.2 64.6 80.3 65.1C80.4 65.4 80.8 65.4 81.1 65.4Z" fill="#E73728"/>
<path d="M84 71.6C84.5 71.4 84.6 70.8 84 70.6C83.4 70.3 82.7 70.7 82.9 71.2C82.9 71.2 82.9 71.2 82.9 71.3C83.1 71.7 83.6 71.8 84 71.6Z" fill="#E73728"/>
<path d="M87.2 77.7C87.8 77.4 87.8 76.7 87.2 76.5C86.5 76.2 85.7 76.7 86 77.3C86 77.3 86 77.3 86 77.4C86.3 77.9 86.9 77.9 87.2 77.7Z" fill="#E73728"/>
<path d="M90.8 83.6C91.5 83.3 91.4 82.5 90.7 82.2C89.9 81.9 89.1 82.6 89.4 83.2C89.4 83.2 89.4 83.2 89.4 83.3C89.8 83.9 90.4 83.8 90.8 83.6Z" fill="#E73728"/>
<path d="M94.7 89.3C95.4 88.9 95.3 88 94.5 87.8C93.6 87.6 92.8 88.3 93.1 89V89.1C93.6 89.6 94.3 89.5 94.7 89.3Z" fill="#E73728"/>
<path d="M98.9 94.7C99.6 94.2 99.4 93.4 98.6 93.2C97.7 93 96.8 93.8 97.3 94.5C97.3 94.5 97.3 94.6 97.4 94.6C97.8 95.1 98.6 95 98.9 94.7Z" fill="#E73728"/>
<path d="M103.5 99.9C104.2 99.3 103.9 98.4 102.9 98.3C102 98.2 101.2 99.1 101.8 99.8C102.4 100.4 103.1 100.2 103.5 99.9Z" fill="#E73728"/>
<path d="M108.3 104.8C109 104.2 108.6 103.3 107.6 103.3C106.7 103.3 106 104.2 106.6 104.9C107.3 105.3 108 105.1 108.3 104.8Z" fill="#E73728"/>
<path d="M113.4 109.4C114 108.8 113.6 107.9 112.7 108C111.8 108 111.2 108.9 111.9 109.6C112.4 110 113.1 109.7 113.4 109.4Z" fill="#E73728"/>
<path d="M118.8 113.7C119.3 113.1 118.8 112.3 118 112.4C117.2 112.5 116.6 113.4 117.3 113.9C117.9 114.3 118.6 114 118.8 113.7Z" fill="#E73728"/>
<path d="M124.5 117.7C124.9 117.1 124.4 116.4 123.7 116.5C122.9 116.6 122.6 117.4 123.1 117.9C123.1 117.9 123.1 117.9 123.2 118C123.7 118.3 124.2 118 124.5 117.7Z" fill="#E73728"/>
<path d="M130.4 121.4C130.8 120.8 130.3 120.2 129.6 120.4C128.9 120.5 128.6 121.3 129.2 121.7C129.2 121.7 129.2 121.7 129.3 121.7C129.7 122 130.2 121.7 130.4 121.4Z" fill="#E73728"/>
<path d="M136.5 124.8C136.8 124.3 136.3 123.8 135.7 124C135.1 124.1 135 124.8 135.4 125.1C135.4 125.1 135.4 125.1 135.5 125.1C136 125.3 136.3 125 136.5 124.8Z" fill="#E73728"/>
<path d="M142.8 127.8C143 127.4 142.6 127 142.2 127.2C141.8 127.3 141.6 127.9 142.1 128.1C142.4 128.2 142.7 128 142.8 127.8Z" fill="#E73728"/>
<path d="M149.4 130.5C149.5 130.2 149.2 129.9 148.9 130.1C148.6 130.2 148.6 130.6 148.9 130.8C149.1 130.8 149.3 130.6 149.4 130.5Z" fill="#E73728"/>
<path d="M156.2 132.8C156.2 132.6 156 132.5 155.9 132.6C155.7 132.7 155.7 132.9 155.9 133C156 133 156.2 132.9 156.2 132.8Z" fill="#E73728"/>
<path d="M163.1 134.7V134.8L163.2 134.7H163.1Z" fill="#E73728"/>
<path d="M87 57.2L86.8 57.1L86.6 57.2L86.9 57.4L87 57.2Z" fill="#E73728"/>
<path d="M89.2 63.3C89.5 63.2 89.5 63 89.3 62.9C89 62.8 88.7 62.9 88.7 63.2C88.8 63.4 89.1 63.4 89.2 63.3Z" fill="#E73728"/>
<path d="M91.9 69.2C92.3 69.1 92.3 68.7 92 68.6C91.6 68.5 91.1 68.7 91.3 69.1C91.3 69.2 91.7 69.2 91.9 69.2Z" fill="#E73728"/>
<path d="M94.9 74.8C95.3 74.6 95.4 74.2 95 74C94.5 73.8 93.9 74.2 94 74.6C94.2 74.9 94.6 74.9 94.9 74.8Z" fill="#E73728"/>
<path d="M98.2 80.3C98.7 80.1 98.7 79.5 98.2 79.4C97.6 79.2 96.9 79.7 97.1 80.1C97.4 80.5 97.9 80.4 98.2 80.3Z" fill="#E73728"/>
<path d="M101.8 85.5C102.3 85.2 102.3 84.6 101.7 84.4C101.1 84.3 100.3 84.8 100.7 85.4C101 85.8 101.5 85.7 101.8 85.5Z" fill="#E73728"/>
<path d="M105.7 90.5C106.2 90.1 106.1 89.5 105.5 89.4C104.8 89.3 104.1 89.9 104.5 90.5C104.9 90.9 105.4 90.7 105.7 90.5Z" fill="#E73728"/>
<path d="M109.9 95.3C110.4 94.9 110.3 94.2 109.6 94.2C108.9 94.1 108.2 94.8 108.6 95.4C109 95.7 109.6 95.5 109.9 95.3Z" fill="#E73728"/>
<path d="M114.4 99.9C114.9 99.4 114.7 98.8 114.1 98.8C113.4 98.8 112.7 99.5 113.2 100C113.5 100.3 114.1 100.1 114.4 99.9Z" fill="#E73728"/>
<path d="M119.1 104.1C119.5 103.7 119.4 103 118.7 103C118 103 117.4 103.8 117.9 104.3C118.3 104.6 118.9 104.4 119.1 104.1Z" fill="#E73728"/>
<path d="M124.1 108.1C124.5 107.6 124.2 107.1 123.7 107.1C123 107.1 122.6 107.9 123 108.3C123.4 108.6 123.9 108.4 124.1 108.1Z" fill="#E73728"/>
<path d="M129.3 111.9C129.6 111.5 129.4 111 128.8 111C128.2 111.1 127.8 111.8 128.3 112.1C128.7 112.4 129.1 112.1 129.3 111.9Z" fill="#E73728"/>
<path d="M134.8 115.3C135 114.9 134.8 114.5 134.3 114.6C133.8 114.7 133.5 115.3 133.9 115.6C134.3 115.7 134.6 115.5 134.8 115.3Z" fill="#E73728"/>
<path d="M140.4 118.4C140.6 118.1 140.3 117.7 139.9 117.9C139.5 118 139.4 118.5 139.7 118.7C140.1 118.8 140.3 118.6 140.4 118.4Z" fill="#E73728"/>
<path d="M146.3 121.3C146.4 121.1 146.2 120.8 145.9 120.9C145.6 121 145.5 121.4 145.8 121.5C146.1 121.5 146.2 121.4 146.3 121.3Z" fill="#E73728"/>
<path d="M152.3 123.5L152.1 123.6V123.9L152.4 123.8L152.3 123.5Z" fill="#E73728"/>
<path d="M97.8 61H97.7L97.6 61.1H97.7L97.8 61Z" fill="#E73728"/>
<path d="M100.2 66.4C100.4 66.3 100.4 66.2 100.3 66.1C100.1 66 99.8 66.2 99.9 66.3C99.9 66.5 100 66.5 100.2 66.4Z" fill="#E73728"/>
<path d="M102.9 71.6C103.2 71.5 103.2 71.3 103 71.2C102.7 71.1 102.3 71.3 102.4 71.6C102.5 71.7 102.7 71.7 102.9 71.6Z" fill="#E73728"/>
<path d="M105.9 76.6C106.2 76.4 106.3 76.1 106 76C105.6 75.9 105.1 76.2 105.3 76.5C105.4 76.8 105.8 76.7 105.9 76.6Z" fill="#E73728"/>
<path d="M109.2 81.4C109.5 81.2 109.5 80.8 109.2 80.8C108.8 80.7 108.2 81.1 108.5 81.4C108.7 81.6 109 81.6 109.2 81.4Z" fill="#E73728"/>
<path d="M112.8 86C113.2 85.7 113.2 85.4 112.8 85.3C112.3 85.2 111.8 85.7 112 86C112.2 86.3 112.6 86.2 112.8 86Z" fill="#E73728"/>
<path d="M116.6 90.4C117 90.1 116.9 89.7 116.5 89.7C116 89.6 115.4 90.2 115.7 90.5C116 90.7 116.4 90.6 116.6 90.4Z" fill="#E73728"/>
<path d="M120.7 94.6C121 94.3 121 93.9 120.6 93.9C120.1 93.9 119.6 94.4 119.9 94.7C120.2 94.9 120.5 94.8 120.7 94.6Z" fill="#E73728"/>
<path d="M125.1 98.5C125.4 98.2 125.3 97.8 124.9 97.8C124.4 97.8 124 98.3 124.2 98.6C124.5 98.9 124.9 98.7 125.1 98.5Z" fill="#E73728"/>
<path d="M129.6 102.2C129.9 101.9 129.8 101.5 129.4 101.6C129 101.6 128.6 102.2 128.9 102.4C129.1 102.5 129.4 102.4 129.6 102.2Z" fill="#E73728"/>
<path d="M134.4 105.6C134.6 105.3 134.5 105 134.2 105.1C133.8 105.2 133.6 105.6 133.8 105.8C134 106 134.3 105.8 134.4 105.6Z" fill="#E73728"/>
<path d="M139.4 108.8C139.6 108.5 139.4 108.3 139.2 108.4C138.9 108.5 138.7 108.8 139 109C139.1 109.1 139.3 108.9 139.4 108.8Z" fill="#E73728"/>
<path d="M144.6 111.7C144.7 111.5 144.6 111.4 144.4 111.4C144.2 111.5 144.1 111.7 144.3 111.8C144.4 111.9 144.5 111.8 144.6 111.7Z" fill="#E73728"/>
<path d="M149.9 114.1L149.8 114.2V114.3H150L149.9 114.1Z" fill="#E73728"/>
<path d="M111.3 68.1L111.2 68L111.1 68.1H111.3Z" fill="#E73728"/>
<path d="M114.1 72.5H113.8L113.7 72.7H114L114.1 72.5Z" fill="#E73728"/>
<path d="M117 77C117.2 76.9 117.2 76.7 117.1 76.7C116.9 76.7 116.6 76.9 116.7 77C116.7 77.1 116.9 77.1 117 77Z" fill="#E73728"/>
<path d="M120.2 81.2C120.4 81.1 120.4 80.9 120.2 80.8C120 80.8 119.6 81 119.7 81.2C119.9 81.4 120.1 81.3 120.2 81.2Z" fill="#E73728"/>
<path d="M123.7 85.2C123.9 85.1 123.9 84.8 123.7 84.8C123.5 84.8 123.1 85.1 123.2 85.3C123.3 85.4 123.5 85.3 123.7 85.2Z" fill="#E73728"/>
<path d="M127.4 89C127.6 88.8 127.6 88.6 127.4 88.6C127.2 88.6 126.8 88.9 127 89.1C127 89.2 127.2 89.1 127.4 89Z" fill="#E73728"/>
<path d="M131.3 92.5C131.5 92.3 131.4 92.1 131.3 92.1C131.1 92.1 130.8 92.4 130.9 92.6C131 92.7 131.2 92.7 131.3 92.5Z" fill="#E73728"/>
<path d="M135.4 95.9C135.5 95.8 135.5 95.6 135.3 95.6C135.1 95.6 134.9 95.9 135 96C135.2 96.1 135.3 96 135.4 95.9Z" fill="#E73728"/>
<path d="M139.7 98.8L139.5 98.9V99.1L139.7 99V98.8Z" fill="#E73728"/>
<path d="M144.2 101.8H144.1V101.9H144.2V101.8Z" fill="#E73728"/>
</svg>
